<svg xmlns="http://www.w3.org/2000/svg" width="49" height="48" viewBox="0 0 49 48" fill="none">
  <path d="M17.8827 46.4214C1.55866 44.0174 1.83333 27.6254 1.83333 22.6667H47.1667C47.1667 25.2187 47.2827 43.6934 29.6667 46.5574C26.944 47 21.056 46.8894 17.8827 46.4214Z" fill="#292F33"/>
  <path d="M45.0173 17.6627C48.3067 10.2307 33.9094 10.6573 30.304 11.82C28.3775 11.5951 26.4396 11.482 24.5 11.4813C11.9813 11.4813 1.83335 15.7853 1.83335 22.74C1.83335 24.0853 2.22135 25.3787 2.92401 26.5947C-2.84532 34.2107 8.58535 35.6427 15.1693 34.208C18.0173 34.924 21.1693 35.3333 24.5 35.3333C37.0187 35.3333 47.1667 29.6947 47.1667 22.7413C47.1667 20.8347 46.3813 19.136 45.0173 17.6627Z" fill="#66757F"/>
  <path d="M24.5 33.3334C35.5457 33.3334 44.5 29.1547 44.5 24C44.5 18.8454 35.5457 14.6667 24.5 14.6667C13.4543 14.6667 4.5 18.8454 4.5 24C4.5 29.1547 13.4543 33.3334 24.5 33.3334Z" fill="#FFCC4D"/>
  <path d="M5.83335 21.3333C5.11068 18.4413 8.50001 13.3333 15.1667 14.6667C16.5 13.3333 18.9507 12 23.1667 12C25.8333 12 30.6493 14.3667 28.5 18.6667C27.1667 21.3333 21.8333 25.3333 15.1667 22.6667C13.8333 24 7.16668 26.6667 5.83335 21.3333Z" fill="#77B255"/>
  <path d="M16.5 22.6667C16.168 22.7147 15.872 22.764 15.596 22.8147C22.06 25.1427 27.196 21.2747 28.5 18.6667C29.9373 15.792 28.2587 13.7867 26.192 12.7693C26.7173 15.1987 24.688 21.4974 16.5 22.6667Z" fill="#5C913B"/>
  <path d="M7.16668 21.3333C7.86668 19.5827 13.8333 17.3333 20.5 25.3333C21.8333 26.6667 26.6147 27.448 28.5 29.3333C29.8333 30.6667 28.5 32 23.1667 32C17.8333 32 4.50001 28 7.16668 21.3333Z" fill="#D99E82"/>
  <path d="M8.55466 26.6907C11.952 30.0813 19.4747 32 23.1667 32C28.5 32 29.8333 30.6667 28.5 29.3333C28.0653 28.8987 27.4733 28.524 26.8093 28.1867C22.5373 30.4973 11.236 27.9947 8.55466 26.6907Z" fill="#B27962"/>
  <path d="M36.5 25.3347C36.2213 25.3347 35.936 25.2894 35.656 25.196L31.656 23.8627C30.985 23.639 30.4304 23.158 30.114 22.5253C29.7977 21.8927 29.7457 21.1604 29.9693 20.4894C30.193 19.8184 30.6741 19.2637 31.3067 18.9474C31.9393 18.6311 32.6717 18.579 33.3427 18.8027L37.3427 20.136C37.945 20.335 38.4566 20.7422 38.7857 21.2845C39.1148 21.8268 39.2398 22.4686 39.1383 23.0947C39.0368 23.7208 38.7154 24.2903 38.2319 24.7008C37.7484 25.1114 37.1343 25.3361 36.5 25.3347ZM35.1667 29.3334H32.5C32.1464 29.3334 31.8073 29.1929 31.5572 28.9428C31.3072 28.6928 31.1667 28.3536 31.1667 28C31.1667 27.6464 31.3072 27.3073 31.5572 27.0572C31.8073 26.8072 32.1464 26.6667 32.5 26.6667H35.1667C35.5203 26.6667 35.8594 26.8072 36.1095 27.0572C36.3595 27.3073 36.5 27.6464 36.5 28C36.5 28.3536 36.3595 28.6928 36.1095 28.9428C35.8594 29.1929 35.5203 29.3334 35.1667 29.3334Z" fill="#FFE8B6"/>
</svg>