<svg xmlns="http://www.w3.org/2000/svg" width="32" height="32" viewBox="0 0 32 32" fill="none">
<path d="M5.33317 28.0001H18.1598C18.9293 28.0005 19.6897 27.8342 20.3887 27.5127C21.0877 27.1911 21.7088 26.722 22.2092 26.1374L29.0118 18.2014C29.1543 18.0355 29.2538 17.8372 29.3015 17.6238C29.3492 17.4104 29.3437 17.1885 29.2855 16.9778C29.2272 16.767 29.1181 16.5738 28.9676 16.4152C28.8171 16.2565 28.6299 16.1373 28.4225 16.0681L25.7985 15.1934C25.1643 14.9873 24.4891 14.9406 23.8326 15.0576C23.176 15.1746 22.5585 15.4516 22.0345 15.8641L17.7878 19.2601L16.9652 17.6134C16.5244 16.7258 15.844 15.9793 15.0008 15.4585C14.1577 14.9377 13.1855 14.6635 12.1945 14.6668H5.33317C3.8625 14.6668 2.6665 15.8628 2.6665 17.3334V25.3334C2.6665 26.8041 3.8625 28.0001 5.33317 28.0001ZM5.33317 17.3334H12.1945C13.2118 17.3334 14.1252 17.8974 14.5798 18.8068L15.1758 20.0001H9.33317V22.6668H17.3518C17.557 22.6641 17.7587 22.6139 17.9412 22.5201L17.9452 22.5188L17.9505 22.5161H17.9545L17.9572 22.5148H17.9625L17.9638 22.5134C17.9758 22.5174 17.9678 22.5121 17.9678 22.5121C17.9812 22.5121 17.9705 22.5108 17.9705 22.5108H17.9718L17.9745 22.5094L17.9785 22.5081L17.9812 22.5068L17.9838 22.5054L17.9878 22.5041L17.9905 22.5028C17.9945 22.5028 17.9918 22.5014 17.9932 22.5014L17.9972 22.4988L17.9998 22.4974L18.0025 22.4961L18.0065 22.4948L18.0092 22.4934H18.0105L18.0132 22.4921L18.0172 22.4908L18.0198 22.4894C18.0318 22.4881 18.0238 22.4881 18.0238 22.4881L18.0265 22.4868C18.0779 22.4558 18.1269 22.421 18.1732 22.3828L23.7012 17.9601C24.0505 17.6828 24.5318 17.5961 24.9545 17.7374L25.6972 17.9854L20.1865 24.4161C19.933 24.7039 19.6212 24.9346 19.2718 25.0927C18.9224 25.2509 18.5434 25.3329 18.1598 25.3334H5.33317V17.3334ZM21.3332 2.66676H21.3105C21.0932 2.66943 19.9692 2.71876 18.6665 3.60676C17.3985 2.74276 16.3012 2.67343 16.0425 2.66809L16.0025 2.66676H15.9972C14.9292 2.66676 13.9238 3.08409 13.1718 3.83743C12.4172 4.59343 11.9998 5.59743 11.9998 6.66676C11.9998 7.7361 12.4172 8.7401 13.1478 9.4721L17.6998 14.2534C17.8251 14.3834 17.9753 14.4868 18.1414 14.5574C18.3076 14.628 18.4863 14.6643 18.6668 14.6642C18.8473 14.6641 19.026 14.6275 19.192 14.5567C19.3581 14.4859 19.5081 14.3823 19.6332 14.2521L24.1612 9.49476C24.9172 8.7401 25.3332 7.7361 25.3332 6.66676C25.3332 5.59743 24.9158 4.59343 24.1625 3.83876C23.7923 3.46615 23.3518 3.17071 22.8666 2.96953C22.3814 2.76835 21.8611 2.66544 21.3358 2.66676H21.3332ZM22.6665 6.66676C22.6665 7.02276 22.5278 7.35743 22.2518 7.63343L18.6665 11.4001L15.0572 7.60943C14.8052 7.35743 14.6665 7.02276 14.6665 6.66676C14.6665 6.31076 14.8052 5.97609 15.0585 5.72276C15.2996 5.4775 15.6279 5.33755 15.9718 5.33343C16.0052 5.33476 16.6412 5.37609 17.3945 5.98009C17.5025 6.06676 17.6118 6.16543 17.7238 6.27609L18.6665 7.21876L19.6092 6.27609C19.7212 6.16543 19.8305 6.06676 19.9385 5.98009C20.6438 5.41343 21.2398 5.34276 21.3412 5.33476C21.515 5.33473 21.687 5.36912 21.8474 5.43594C22.0079 5.50276 22.1535 5.6007 22.2758 5.72409C22.5278 5.97609 22.6665 6.31076 22.6665 6.66676Z" fill="#096A56"/>
</svg>