<svg xmlns="http://www.w3.org/2000/svg" width="22" height="27" viewBox="0 0 22 27" fill="none">
  <path d="M20.6364 11.3182C20.6364 18.9545 10.8182 25.5 10.8182 25.5C10.8182 25.5 1 18.9545 1 11.3182C1 8.71424 2.03441 6.21695 3.87568 4.37568C5.71694 2.53441 8.21424 1.5 10.8182 1.5C13.4221 1.5 15.9194 2.53441 17.7607 4.37568C19.6019 6.21695 20.6364 8.71424 20.6364 11.3182Z" stroke="#22495F" stroke-width="2" stroke-linecap="round" stroke-linejoin="round"/>
  <path d="M10.822 14.5918C12.6295 14.5918 14.0948 13.1266 14.0948 11.3191C14.0948 9.51164 12.6295 8.04639 10.822 8.04639C9.01457 8.04639 7.54932 9.51164 7.54932 11.3191C7.54932 13.1266 9.01457 14.5918 10.822 14.5918Z" stroke="#22495F" stroke-width="2" stroke-linecap="round" stroke-linejoin="round"/>
</svg>