<svg xmlns="http://www.w3.org/2000/svg" width="32" height="32" viewBox="0 0 32 32" fill="none">
  <path opacity="0.4" d="M21.4345 2.66675H25.9491C27.8188 2.66675 29.3338 4.19455 29.3338 6.08003V10.6328C29.3338 12.5183 27.8188 14.0461 25.9491 14.0461H21.4345C19.5648 14.0461 18.0498 12.5183 18.0498 10.6328V6.08003C18.0498 4.19455 19.5648 2.66675 21.4345 2.66675Z" fill="#22495F"/>
  <path fill-rule="evenodd" clip-rule="evenodd" d="M6.05169 2.66675H10.5663C12.436 2.66675 13.951 4.19455 13.951 6.08003V10.6328C13.951 12.5183 12.436 14.0461 10.5663 14.0461H6.05169C4.182 14.0461 2.66699 12.5183 2.66699 10.6328V6.08003C2.66699 4.19455 4.182 2.66675 6.05169 2.66675ZM6.05169 17.954H10.5663C12.436 17.954 13.951 19.4818 13.951 21.3673V25.9201C13.951 27.8043 12.436 29.3334 10.5663 29.3334H6.05169C4.182 29.3334 2.66699 27.8043 2.66699 25.9201V21.3673C2.66699 19.4818 4.182 17.954 6.05169 17.954ZM25.949 17.954H21.4344C19.5647 17.954 18.0497 19.4818 18.0497 21.3673V25.9201C18.0497 27.8043 19.5647 29.3334 21.4344 29.3334H25.949C27.8187 29.3334 29.3337 27.8043 29.3337 25.9201V21.3673C29.3337 19.4818 27.8187 17.954 25.949 17.954Z" fill="#22495F"/>
</svg>