<svg xmlns="http://www.w3.org/2000/svg" width="32" height="32" viewBox="0 0 32 32" fill="none">
  <path opacity="0.4" d="M21.7774 29.3334H10.2219C5.70285 29.3334 2.66699 26.1639 2.66699 21.4458V10.5557C2.66699 5.83757 5.70285 2.66675 10.2219 2.66675H21.7787C26.2978 2.66675 29.3337 5.83757 29.3337 10.5557V21.4458C29.3337 26.1639 26.2978 29.3334 21.7774 29.3334Z" fill="#22495F"/>
  <path fill-rule="evenodd" clip-rule="evenodd" d="M14.994 11.5667C14.994 13.3934 13.5074 14.8801 11.6807 14.8801C9.85271 14.8801 8.36738 13.3934 8.36738 11.5667C8.36738 9.74007 9.85271 8.25208 11.6807 8.25208C13.5074 8.25208 14.994 9.74007 14.994 11.5667ZM25.868 18.7835C26.1786 19.0849 26.4013 19.4289 26.548 19.7955C26.992 20.9049 26.7613 22.2382 26.2866 23.3369C25.724 24.6449 24.6466 25.6329 23.2893 26.0649C22.6866 26.2582 22.0546 26.3409 21.424 26.3409H10.2493C9.13731 26.3409 8.15331 26.0822 7.34665 25.5969C6.84131 25.2929 6.75198 24.5929 7.12665 24.1369C7.75331 23.3769 8.37198 22.6142 8.99598 21.8449C10.1853 20.3729 10.9866 19.9462 11.8773 20.3209C12.2386 20.4755 12.6013 20.7089 12.9746 20.9542C13.9693 21.6129 15.352 22.5169 17.1733 21.5355C18.4183 20.8548 19.141 19.6899 19.77 18.676L19.7826 18.6555C19.825 18.5877 19.8669 18.5198 19.9088 18.4522C20.1227 18.1066 20.3333 17.7662 20.572 17.4529C20.868 17.0649 21.9666 15.8515 23.3866 16.7155C24.292 17.2595 25.0533 17.9955 25.868 18.7835Z" fill="#22495F"/>
</svg>