<svg xmlns="http://www.w3.org/2000/svg" width="32" height="32" viewBox="0 0 32 32" fill="none">
<path opacity="0.4" d="M22.2194 29.3197H9.78016C7.85147 29.4396 5.9574 28.7709 4.53219 27.4683C3.22952 26.0417 2.56087 24.1477 2.68075 22.2203V9.77985C2.56087 7.8525 3.22819 5.95846 4.53086 4.53193C5.9574 3.22927 7.85147 2.56063 9.78016 2.68051H22.2194C24.1455 2.56063 26.0382 3.22794 27.4634 4.5306C28.7648 5.95846 29.4347 7.85117 29.3202 9.77985V22.2203C29.4387 24.1477 28.7714 26.0417 27.4687 27.4683C26.0422 28.7709 24.1481 29.4396 22.2194 29.3197Z" fill="#22495F"/>
<path d="M22.7397 13.8635L14.0027 22.644C13.5483 23.0863 12.9511 23.3334 12.328 23.3334H9.27716C9.10839 23.3334 8.9526 23.2684 8.83576 23.1513C8.71892 23.0342 8.66699 22.8781 8.66699 22.709L8.74489 19.6261C8.75787 19.0147 9.00453 18.4424 9.43294 18.0131L15.6255 11.8082C15.7293 11.7041 15.9111 11.7041 16.0149 11.8082L18.1869 13.9715C18.3297 14.1133 18.5374 14.2056 18.7581 14.2056C19.2384 14.2056 19.6149 13.8154 19.6149 13.3471C19.6149 13.1129 19.524 12.9048 19.3812 12.7487C19.3423 12.6967 17.2742 10.6375 17.2742 10.6375C17.1444 10.5074 17.1444 10.2863 17.2742 10.1562L18.144 9.27163C18.9489 8.46512 20.2471 8.46512 21.052 9.27163L22.7397 10.9627C23.5316 11.7562 23.5316 13.057 22.7397 13.8635Z" fill="#22495F"/>
</svg>