<svg xmlns="http://www.w3.org/2000/svg" width="48" height="48" viewBox="0 0 48 48" fill="none">
  <path d="M36.728 10.8744L43.7688 3.90078C44.0678 3.60472 44.5622 3.65337 44.7977 4.00203L46.4219 6.40662C46.6456 6.73784 46.5323 7.1899 46.1788 7.37637L37.5137 11.9454C37.3674 12.0225 37.1977 12.0429 37.0372 12.0027C36.8768 11.9625 36.7368 11.8644 36.6442 11.7273C36.5565 11.5977 36.5169 11.4415 36.5323 11.2857C36.5476 11.13 36.6168 10.9845 36.728 10.8744ZM37.8924 16.863C37.9187 16.992 37.9918 17.1067 38.0976 17.1851C38.2034 17.2635 38.3344 17.3001 38.4655 17.2878L46.2263 16.5633C46.301 16.5563 46.3734 16.5337 46.4388 16.4969C46.5042 16.46 46.5611 16.4098 46.6058 16.3495C46.6505 16.2892 46.682 16.2202 46.6982 16.1469C46.7145 16.0736 46.7151 15.9977 46.7 15.9242L46.237 13.6621C46.1698 13.3342 45.8211 13.148 45.5113 13.2748L38.2135 16.2613C38.0982 16.3085 38.0031 16.3944 37.9445 16.5043C37.8858 16.6142 37.8674 16.741 37.8924 16.863ZM32.0978 8.62765C32.2076 8.70019 32.3404 8.72961 32.4706 8.71026C32.6008 8.69092 32.7193 8.62418 32.8033 8.52284L37.7787 2.52284C37.8266 2.46506 37.8618 2.39783 37.882 2.32554C37.9022 2.25325 37.907 2.17752 37.8959 2.10328C37.8849 2.02904 37.8583 1.95796 37.818 1.89466C37.7777 1.83136 37.7245 1.77727 37.6618 1.7359L35.735 0.463809C35.4556 0.279403 35.0773 0.39434 34.948 0.703153L31.8994 7.97525C31.8513 8.09007 31.8447 8.2181 31.881 8.33722C31.9172 8.45634 31.9939 8.55907 32.0978 8.62765Z" fill="#FFD469"/>
  <path d="M20.475 44.9847L18.9761 45.8612C17.7578 46.5737 16.1925 46.1637 15.48 44.9453L11.506 38.1496C10.7935 36.9313 11.2035 35.366 12.4219 34.6535L13.9208 33.777C15.1391 33.0645 16.7044 33.4745 17.4169 34.6929L21.391 41.4885C22.1036 42.7069 21.6934 44.2722 20.475 44.9847Z" fill="#00B1FF"/>
  <path d="M11.2877 38.3158L25.8106 30.4089L15.8827 14.8644L2.75477 24.6175C2.67011 24.6716 -0.878138 27.9181 3.01858 34.0195C6.9153 40.1208 11.2877 38.3158 11.2877 38.3158Z" fill="#0096D1"/>
  <path d="M33.9874 14.2715C38.3313 21.0729 40.9631 28.4411 39.1457 29.6017C37.3284 30.7623 31.7502 25.2761 27.4063 18.4746C23.0624 11.6731 20.4308 4.30513 22.248 3.14441C24.0653 1.98369 29.6435 7.47004 33.9874 14.2715Z" fill="#727272"/>
  <path d="M31.942 23.7092C33.4475 22.7477 33.0162 19.382 30.9786 16.1919C28.941 13.0017 26.0688 11.1951 24.5632 12.1567C23.0577 13.1183 23.4891 16.484 25.5267 19.6741C27.5643 22.8642 30.4365 24.6708 31.942 23.7092Z" fill="#B2B2B2"/>
  <path d="M39.0664 29.6525C37.479 30.6663 32.0872 25.061 27.7433 18.2595C23.3994 11.458 20.5813 4.20899 22.1687 3.19518C22.2601 3.13677 22.3626 3.09824 22.4747 3.07696C21.7258 3.0598 20.9921 3.45036 20.558 4.28061C18.6447 7.93949 13.7619 16.0573 13.7619 16.0573C13.7619 16.0573 11.339 19.3198 15.5983 25.9887C19.8576 32.6576 23.9698 31.8231 23.9698 31.8231C23.9698 31.8231 33.3113 30.8688 37.4158 30.6727C38.3875 30.6263 39.0643 30.0868 39.3455 29.3589C39.2708 29.4817 39.1785 29.5808 39.0664 29.6525Z" fill="#D1D1D1"/>
  <path d="M4.95864 28.8913C4.73664 28.8915 4.51816 28.8358 4.32343 28.7292C4.12869 28.6226 3.96401 28.4686 3.84461 28.2814C3.45208 27.6668 3.63208 26.8504 4.24671 26.4579L9.67586 22.9904C10.2904 22.598 11.1069 22.7779 11.4994 23.3925C11.8919 24.0072 11.7119 24.8235 11.0973 25.2161L5.66814 28.6835C5.4564 28.8192 5.21015 28.8913 4.95864 28.8913Z" fill="#00B1FF"/>
</svg>