<svg xmlns="http://www.w3.org/2000/svg" width="48" height="48" viewBox="0 0 48 48" fill="none">
  <g clip-path="url(#clip0_3_303)">
    <path d="M41.175 29.775L46.65 35.475L22.575 47.55C22.575 47.55 19.425 49.125 17.925 46.65C11.925 36.9 41.175 29.775 41.175 29.775Z" fill="#256382"/>
    <path d="M21.9 40.425C21.9 40.425 17.325 42.15 18.15 45.375C19.05 48.75 22.725 46.725 22.725 46.725L45.6 35.475C45.6 35.475 44.325 31.875 46.65 29.475L21.9 40.425Z" fill="#D9E3E8"/>
    <path d="M25.8 6.67505L47.7 29.25L21.825 39.975L5.25 12.525L25.8 6.67505Z" fill="#42ADE2"/>
    <path d="M45.525 31.95L30.225 38.55L45.225 31.275L45.525 31.95ZM45.3 33.9L29.025 41.025L45 33.225L45.3 33.9ZM45.45 35.025L24.675 44.55L45.15 34.35L45.45 35.025Z" fill="#94989B"/>
    <path d="M17.85 46.575C15.3 40.95 21.825 39.975 21.825 39.975L5.25 12.525C5.25 12.525 1.5 12.45 1.5 16.575C1.5 18.3 2.25 19.575 2.25 19.575L17.85 46.575Z" fill="#428BC1"/>
    <path d="M6.52499 24.15L1.04999 29.85L25.125 41.925C25.125 41.925 28.275 43.5 29.775 41.025C35.775 31.275 6.52499 24.15 6.52499 24.15Z" fill="#547725"/>
    <path d="M25.725 34.8C25.725 34.8 30.3 36.525 29.475 39.75C28.575 43.125 24.975 41.1 24.975 41.1L2.09999 29.85C2.09999 29.85 3.37499 26.25 1.04999 23.85L25.725 34.8Z" fill="#D9E3E8"/>
    <path d="M21.9 1.05005L0 23.625L25.875 34.35L42.45 6.90005L21.9 1.05005Z" fill="#83BF4F"/>
    <path d="M2.40001 25.65L17.4 32.925L2.10001 26.325L2.40001 25.65ZM2.70001 27.6L18.6 35.4L2.32501 28.275L2.70001 27.6ZM2.55001 28.725L22.95 38.925L2.17501 29.4L2.55001 28.725Z" fill="#94989B"/>
    <path d="M29.85 40.95C32.4 35.325 25.875 34.35 25.875 34.35L42.45 6.89999C42.45 6.89999 46.2 6.825 46.2 10.95C46.2 12.675 45.45 13.95 45.45 13.95L29.85 40.95Z" fill="#699635"/>
    <path d="M42.525 19.5L47.1 24.3L26.775 34.425C26.775 34.425 24.075 35.7 22.8 33.675C17.85 25.5 42.525 19.5 42.525 19.5Z" fill="#962C2C"/>
    <path d="M26.25 28.5C26.25 28.5 22.35 29.925 23.1 32.7C23.85 35.55 26.925 33.825 26.925 33.825L46.2 24.3C46.2 24.3 45.15 21.3 47.1 19.275L26.25 28.5Z" fill="#D9E3E8"/>
    <path d="M29.55 0L48 19.05L26.175 28.125L12.15 4.95L29.55 0Z" fill="#ED4C5C"/>
    <path d="M30.075 4.34998L33.675 8.32498L20.4 13.35L17.25 8.24998L30.075 4.34998Z" fill="white"/>
    <path d="M46.2 21.375L33.3 26.85L45.9 20.7L46.2 21.375ZM46.05 23.025L32.25 28.95L45.75 22.35L46.05 23.025ZM46.2 23.925L28.65 31.95L45.825 23.25L46.2 23.925Z" fill="#94989B"/>
    <path d="M22.875 33.675C20.775 28.95 26.25 28.125 26.25 28.125L12.15 4.94996C12.15 4.94996 8.92499 4.87496 8.92499 8.32496C8.92499 9.74996 9.52499 10.875 9.52499 10.875L22.875 33.675Z" fill="#C94747"/>
  </g>
  <defs>
    <clipPath id="clip0_3_303">
      <rect width="48" height="48" fill="white"/>
    </clipPath>
  </defs>
</svg>