<svg width="360" height="360" viewBox="0 0 360 360" fill="none" xmlns="http://www.w3.org/2000/svg">
<rect width="360" height="360" fill="#1E1E1E"/>
<g clip-path="url(#clip0_0_1)">
<rect width="1440" height="7946" transform="translate(-974 -5211)" fill="white"/>
<rect x="-974" y="-92" width="1440" height="544.32" fill="#096A56"/>
<path d="M139.024 189.28C137.195 189.28 135.589 188.888 134.208 188.104C132.827 187.301 131.753 186.181 130.988 184.744C130.223 183.288 129.84 181.58 129.84 179.62C129.84 177.66 130.251 175.961 131.072 174.524C131.893 173.068 133.051 171.948 134.544 171.164C136.037 170.361 137.783 169.96 139.78 169.96C141.553 169.96 143.112 170.249 144.456 170.828C145.819 171.388 146.883 172.191 147.648 173.236C148.413 174.281 148.796 175.532 148.796 176.988V177.212H145.464V176.988C145.464 175.644 144.988 174.627 144.036 173.936C143.084 173.227 141.637 172.872 139.696 172.872C138.184 172.872 136.933 173.115 135.944 173.6C134.973 174.067 134.245 174.795 133.76 175.784C133.275 176.773 133.032 178.052 133.032 179.62C133.032 181.169 133.265 182.448 133.732 183.456C134.217 184.445 134.936 185.183 135.888 185.668C136.859 186.135 138.081 186.368 139.556 186.368C141.049 186.368 142.253 186.228 143.168 185.948C144.083 185.649 144.745 185.173 145.156 184.52C145.585 183.867 145.8 183.017 145.8 181.972V181.356L148.796 181.44V181.888L146.304 184.94H145.856C145.595 185.855 145.156 186.639 144.54 187.292C143.943 187.945 143.177 188.44 142.244 188.776C141.329 189.112 140.256 189.28 139.024 189.28ZM148.796 189H146.052V184.24L145.8 183.848V179.788H148.796V189ZM148.796 181.72H138.856V179.424H148.796V181.72ZM155.489 189H152.465V175.084H155.489V189ZM155.489 173.46H152.465V170.24H155.489V173.46ZM173.942 189H170.918V181.44C170.918 180.133 170.6 179.153 169.966 178.5C169.35 177.847 168.314 177.52 166.858 177.52C165.346 177.52 164.226 177.912 163.498 178.696C162.788 179.461 162.434 180.6 162.434 182.112L161.902 182.14L161.762 179.396H162.378C162.527 178.612 162.826 177.875 163.274 177.184C163.74 176.475 164.375 175.905 165.178 175.476C165.999 175.028 166.998 174.804 168.174 174.804C169.462 174.804 170.535 175.065 171.394 175.588C172.252 176.111 172.887 176.811 173.298 177.688C173.727 178.565 173.942 179.545 173.942 180.628V189ZM162.434 189H159.41V175.084H162.182V179.452L162.434 179.592V189ZM184.868 189.28C183.337 189.28 181.984 188.981 180.808 188.384C179.651 187.768 178.745 186.919 178.092 185.836C177.457 184.735 177.14 183.475 177.14 182.056C177.14 180.6 177.457 179.331 178.092 178.248C178.745 177.165 179.651 176.325 180.808 175.728C181.984 175.112 183.337 174.804 184.868 174.804C186.436 174.804 187.799 175.112 188.956 175.728C190.113 176.325 191.009 177.165 191.644 178.248C192.297 179.331 192.624 180.6 192.624 182.056C192.624 183.475 192.297 184.735 191.644 185.836C191.009 186.919 190.113 187.768 188.956 188.384C187.799 188.981 186.436 189.28 184.868 189.28ZM184.868 186.592C186.567 186.592 187.789 186.209 188.536 185.444C189.283 184.66 189.656 183.531 189.656 182.056C189.656 180.581 189.283 179.452 188.536 178.668C187.789 177.865 186.567 177.464 184.868 177.464C183.188 177.464 181.975 177.865 181.228 178.668C180.481 179.452 180.108 180.581 180.108 182.056C180.108 183.531 180.481 184.66 181.228 185.444C181.975 186.209 183.188 186.592 184.868 186.592ZM204.703 189.28C203.116 189.28 201.828 188.916 200.839 188.188C199.849 187.441 199.205 186.377 198.907 184.996H198.235L198.431 182.196H198.963C198.963 183.148 199.149 183.951 199.523 184.604C199.915 185.257 200.465 185.743 201.175 186.06C201.903 186.359 202.761 186.508 203.751 186.508C204.777 186.508 205.636 186.368 206.327 186.088C207.036 185.808 207.568 185.341 207.923 184.688C208.296 184.035 208.483 183.157 208.483 182.056C208.483 180.936 208.296 180.049 207.923 179.396C207.549 178.743 207.017 178.276 206.327 177.996C205.636 177.697 204.796 177.548 203.807 177.548C202.239 177.548 201.035 177.921 200.195 178.668C199.373 179.396 198.963 180.497 198.963 181.972H198.431V178.864H199.131C199.411 177.688 200.017 176.717 200.951 175.952C201.903 175.187 203.209 174.804 204.871 174.804C206.308 174.804 207.512 175.112 208.483 175.728C209.472 176.325 210.219 177.165 210.723 178.248C211.245 179.331 211.507 180.6 211.507 182.056C211.507 183.475 211.245 184.735 210.723 185.836C210.219 186.919 209.453 187.768 208.427 188.384C207.419 188.981 206.177 189.28 204.703 189.28ZM198.711 189H195.939V170.24H198.963V184.268L198.711 184.632V189ZM227.883 189H225.111V185.416L224.915 185.332V180.572C224.915 179.415 224.635 178.612 224.075 178.164C223.533 177.697 222.591 177.464 221.247 177.464C219.959 177.464 218.997 177.688 218.363 178.136C217.728 178.584 217.411 179.321 217.411 180.348V180.46H214.415V180.348C214.415 179.284 214.695 178.341 215.255 177.52C215.815 176.68 216.617 176.017 217.663 175.532C218.727 175.047 219.996 174.804 221.471 174.804C222.945 174.804 224.149 175.056 225.083 175.56C226.035 176.045 226.735 176.717 227.183 177.576C227.649 178.435 227.883 179.424 227.883 180.544V189ZM218.811 189.28C217.373 189.28 216.225 188.963 215.367 188.328C214.527 187.675 214.107 186.779 214.107 185.64C214.107 184.912 214.284 184.305 214.639 183.82C215.012 183.316 215.535 182.924 216.207 182.644C216.879 182.364 217.672 182.168 218.587 182.056L225.195 181.356V183.148L219.455 183.792C218.671 183.885 218.083 184.053 217.691 184.296C217.317 184.52 217.131 184.903 217.131 185.444C217.131 186.004 217.327 186.424 217.719 186.704C218.129 186.965 218.764 187.096 219.623 187.096C220.687 187.096 221.611 186.965 222.395 186.704C223.179 186.424 223.795 185.995 224.243 185.416C224.691 184.837 224.915 184.091 224.915 183.176L225.307 183.232V185.528H224.915C224.541 186.704 223.823 187.628 222.759 188.3C221.713 188.953 220.397 189.28 218.811 189.28Z" fill="white"/>
<path fill-rule="evenodd" clip-rule="evenodd" d="M314.01 59.797C302.775 47.2444 283.537 46.2179 271.041 57.5042C258.546 68.7906 257.524 88.1159 268.759 100.668C287.675 121.803 299.148 149.685 299.148 180.332C299.148 225.66 273.962 265.079 236.882 285.237C247.899 290.339 256.683 300.109 260.146 312.782C263.066 323.472 261.681 334.328 257.046 343.488C317.896 314.623 360 252.417 360 180.332C360 134.017 342.579 91.7166 314.01 59.797Z" fill="#FDEDC5"/>
<path d="M110.976 82.4779C130.184 69.0187 153.51 61.1295 178.762 61.1295C204.013 61.1295 227.339 69.0187 246.548 82.4779C247.003 82.7968 247.463 83.1014 247.929 83.3919C246.999 70.6459 251.739 57.619 261.931 48.4128C269.19 41.8564 278.074 38.2679 287.109 37.5687C285.46 35.6295 283.54 33.8675 281.361 32.3404C252.272 11.9576 216.861 0 178.762 0C140.662 0 105.251 11.9576 76.1622 32.3404C62.3799 41.9976 59.0004 61.0501 68.6139 74.8952C78.2273 88.7402 97.1933 92.1352 110.976 82.4779Z" fill="#95A4FC"/>
<path fill-rule="evenodd" clip-rule="evenodd" d="M51.0359 55.0391C49.1007 56.3778 47.2901 57.9645 45.65 59.7969C31.9417 75.1127 20.7941 92.8198 12.906 112.24C6.55781 127.87 14.0243 145.71 29.5829 152.087C45.1415 158.464 62.9005 150.964 69.2487 135.334C74.4478 122.534 81.8122 110.823 90.9008 100.668C91.0561 100.495 91.2091 100.32 91.3597 100.144C78.6913 99.4743 66.4516 93.1513 58.6319 81.8895C52.9619 73.7237 50.5203 64.264 51.0359 55.0391Z" fill="#F38FBF"/>
<path fill-rule="evenodd" clip-rule="evenodd" d="M5.43761 141.706C9.79843 151.211 17.6198 159.141 28.0277 163.407C39.4761 168.1 51.7755 167.425 62.1592 162.552C61.2998 168.337 60.8522 174.272 60.8522 180.332C60.8522 218.892 79.0786 253.176 107.349 274.964C108.853 275.682 110.318 276.534 111.728 277.522C130.937 290.981 154.263 298.871 179.514 298.871C190.463 298.871 201.018 297.389 211.015 294.633C227.219 290.165 243.961 299.739 248.409 316.018C252.857 332.296 243.326 349.114 227.121 353.582C211.926 357.772 195.955 360 179.514 360C168.406 360 157.525 358.984 146.964 357.038C147.189 357.305 147.416 357.569 147.647 357.831C63.7061 342.724 0 269.002 0 180.332C0 170.34 0.811989 160.515 2.37929 150.927C2.92012 147.619 3.97089 144.522 5.43761 141.706Z" fill="#BAEDBD"/>
</g>
<defs>
<clipPath id="clip0_0_1">
<rect width="1440" height="7946" fill="white" transform="translate(-974 -5211)"/>
</clipPath>
</defs>
</svg>
