<svg xmlns="http://www.w3.org/2000/svg" width="28" height="28" viewBox="0 0 28 28" fill="none">
  <rect x="0.640137" y="0.560059" width="26.88" height="26.88" rx="3.84" fill="#096A56"/>
  <path d="M22.5989 17.6529V18.5926C22.5989 19.2145 22.1857 19.7464 21.6065 19.954C21.6068 19.9777 21.6073 20.0012 21.6073 20.0248V22.5873C22.8116 22.3499 23.7194 21.3342 23.7194 20.1209V17.6527L22.5989 17.6529Z" fill="#EAF0E8"/>
  <path d="M14.817 10.5906V9.60795C14.817 8.7574 14.4852 7.93302 13.8824 7.28634C13.3182 6.68099 12.5759 6.29635 11.7739 6.18962C11.5964 6.02638 11.2722 5.72858 10.9472 5.43134C10.6661 5.17417 10.4414 4.96932 10.2789 4.82251C10.1857 4.73832 10.1077 4.66818 10.0523 4.61934C9.93115 4.51246 9.70586 4.31332 9.37202 4.44205L9.01475 4.58009L9.06162 6.69032L8.97358 6.75071C8.39907 7.14509 8.01426 7.75211 7.91538 8.41841L6.38286 9.38961L6.37773 10.0569C6.37407 10.5658 6.57974 11.0448 6.95708 11.4059C7.33457 11.767 7.8373 11.9659 8.373 11.9659H9.54004V12.9443C9.54004 13.4304 9.62222 13.9106 9.78393 14.3718L10.6491 16.8373V20.5824C9.74145 20.785 9.06235 21.5603 9.0603 22.483L9.0584 22.6385L12.3987 22.6389C12.4901 21.8078 13.1318 21.1293 13.9703 20.9399V20.2868C13.9703 18.5 15.5003 17.0465 17.3811 17.0465H17.4635V18.1109H17.3811C16.1182 18.1109 15.0908 19.087 15.0908 20.2868V21.9515H14.4461C14.0028 21.9515 13.63 22.2455 13.5325 22.639L20.5199 22.6402V20.0249C20.5199 17.7016 19.6032 15.4847 17.9387 13.7826L14.817 10.5906Z" fill="#EAF0E8"/>
</svg>