<svg xmlns="http://www.w3.org/2000/svg" width="28" height="27" viewBox="0 0 28 27" fill="none">
<rect x="0.640137" width="26.88" height="26.88" rx="3.84" fill="#096A56"/>
<path d="M22.5251 18.6638C22.2583 18.4784 22.0235 18.2507 21.83 17.9898C21.3666 17.4632 20.7768 16.8102 19.6815 16.8102C18.5862 16.8102 18.0175 17.4421 17.533 18.0109C17.0486 18.5796 16.7326 18.9166 16.0165 18.9166C15.3003 18.9166 14.9422 18.5164 14.4999 18.0109C14.0576 17.5053 13.4678 16.8102 12.3514 16.8102C11.2351 16.8102 10.6875 17.4421 10.203 18.0109C9.71852 18.5796 9.40256 18.9166 8.68642 18.9166C7.97027 18.9166 7.61218 18.5164 7.16987 18.0109C6.86918 17.6138 6.48896 17.2838 6.0535 17.0419C5.84409 16.9372 5.58949 17.0221 5.48479 17.2315C5.38009 17.4409 5.46495 17.6955 5.67436 17.8002C6.00508 17.9995 6.29753 18.2564 6.53794 18.5585C7.02239 19.1272 7.59109 19.7591 8.68642 19.7591C9.78174 19.7591 10.3504 19.1272 10.8349 18.5585C11.3193 17.9898 11.6353 17.6528 12.3514 17.6528C13.0676 17.6528 13.4257 18.053 13.868 18.5585C14.3103 19.064 14.9001 19.7591 16.0165 19.7591C17.1328 19.7591 17.6805 19.1272 18.1649 18.5585C18.6494 17.9898 18.9654 17.6528 19.6815 17.6528C20.3976 17.6528 20.7557 18.053 21.198 18.5585C21.4435 18.8737 21.7346 19.1505 22.0616 19.3799C22.2594 19.5079 22.5235 19.4513 22.6514 19.2536C22.7794 19.0558 22.7229 18.7918 22.5251 18.6638Z" fill="#EAF0E8"/>
<path d="M22.5251 15.5043C22.2583 15.3189 22.0235 15.0912 21.83 14.8303C21.3666 14.3037 20.7768 13.6507 19.6815 13.6507C18.5862 13.6507 18.0175 14.2826 17.533 14.8514C17.0486 15.4201 16.7326 15.7571 16.0165 15.7571C15.3003 15.7571 14.9422 15.3569 14.4999 14.8514C14.0576 14.3458 13.4678 13.6507 12.3514 13.6507C11.2351 13.6507 10.6875 14.2826 10.203 14.8514C9.71852 15.4201 9.40256 15.7571 8.68642 15.7571C7.97027 15.7571 7.61218 15.3569 7.16987 14.8514C6.86918 14.4543 6.48896 14.1243 6.0535 13.8824C5.84409 13.7777 5.58949 13.8626 5.48479 14.072C5.38009 14.2814 5.46495 14.536 5.67436 14.6407C6.00508 14.84 6.29753 15.0969 6.53794 15.399C7.02239 15.9677 7.59109 16.5996 8.68642 16.5996C9.78174 16.5996 10.3504 15.9677 10.8349 15.399C11.3193 14.8303 11.6353 14.4933 12.3514 14.4933C13.0676 14.4933 13.4257 14.8935 13.868 15.399C14.3103 15.9045 14.9001 16.5996 16.0165 16.5996C17.1328 16.5996 17.6805 15.9677 18.1649 15.399C18.6494 14.8303 18.9654 14.4933 19.6815 14.4933C20.3976 14.4933 20.7557 14.8935 21.198 15.399C21.4435 15.7142 21.7346 15.991 22.0616 16.2205C22.2594 16.3484 22.5235 16.2919 22.6514 16.0941C22.7794 15.8963 22.7229 15.6323 22.5251 15.5043Z" fill="#EAF0E8"/>
<path d="M22.5251 12.1341C22.2583 11.9486 22.0235 11.721 21.83 11.46C21.3666 10.9335 20.7768 10.2805 19.6815 10.2805C18.5862 10.2805 18.0175 10.9124 17.533 11.4811C17.0485 12.0499 16.7326 12.3868 16.0165 12.3868C15.3003 12.3868 14.9422 11.9866 14.4999 11.4811C14.0576 10.9756 13.4678 10.2805 12.3514 10.2805C11.2351 10.2805 10.6875 10.9124 10.203 11.4811C9.71852 12.0498 9.40256 12.3868 8.68642 12.3868C7.97027 12.3868 7.61218 11.9866 7.16987 11.4811C6.86918 11.084 6.48896 10.754 6.0535 10.5122C5.84409 10.4075 5.58949 10.4924 5.48479 10.7018C5.38009 10.9112 5.46495 11.1658 5.67436 11.2705C6.00508 11.4698 6.29753 11.7266 6.53794 12.0288C7.02239 12.5975 7.59109 13.2294 8.68642 13.2294C9.78174 13.2294 10.3504 12.5975 10.8349 12.0288C11.3193 11.46 11.6353 11.123 12.3514 11.123C13.0676 11.123 13.4257 11.5233 13.868 12.0288C14.3103 12.5342 14.9001 13.2294 16.0165 13.2294C17.1328 13.2294 17.6805 12.5975 18.1649 12.0288C18.6494 11.46 18.9654 11.123 19.6815 11.123C20.3976 11.123 20.7557 11.5233 21.198 12.0288C21.4435 12.3439 21.7346 12.6208 22.0616 12.8502C22.2594 12.9782 22.5235 12.9216 22.6514 12.7238C22.7794 12.5261 22.7229 12.262 22.5251 12.1341Z" fill="#EAF0E8"/>
<path d="M5.67452 8.11107C6.00524 8.31039 6.2977 8.56721 6.53811 8.86934C7.02255 9.43805 7.59126 10.07 8.68658 10.07C9.78191 10.07 10.3506 9.43809 10.8351 8.86934C11.3195 8.30064 11.6355 7.96363 12.3516 7.96363C13.0678 7.96363 13.4258 8.36385 13.8682 8.86934C14.3105 9.37487 14.9003 10.07 16.0166 10.07C17.133 10.07 17.6806 9.43809 18.1651 8.86934C18.6496 8.30064 18.9655 7.96363 19.6817 7.96363C20.3978 7.96363 20.7559 8.36385 21.1982 8.86934C21.4437 9.18454 21.7347 9.46139 22.0618 9.69084C22.2596 9.8188 22.5236 9.7622 22.6516 9.56444C22.7796 9.36669 22.723 9.10262 22.5252 8.97465C22.2584 8.78924 22.0237 8.56157 21.8301 8.30064C21.3667 7.77406 20.7769 7.12109 19.6816 7.12109C18.5863 7.12109 18.0176 7.75298 17.5331 8.32172C17.0487 8.89043 16.7327 9.22744 16.0166 9.22744C15.3004 9.22744 14.9424 8.82721 14.5 8.32172C14.0577 7.81619 13.4679 7.12109 12.3516 7.12109C11.2352 7.12109 10.6876 7.75298 10.2031 8.32172C9.71865 8.89043 9.40269 9.22744 8.68654 9.22744C7.9704 9.22744 7.61239 8.82721 7.17003 8.32168C6.86935 7.92456 6.48912 7.59457 6.05366 7.35275C5.84426 7.24805 5.58966 7.33292 5.48496 7.54232C5.38025 7.75173 5.46516 8.00637 5.67452 8.11107Z" fill="#EAF0E8"/>
</svg>