<svg xmlns="http://www.w3.org/2000/svg" width="48" height="48" viewBox="0 0 48 48" fill="none">
  <g clip-path="url(#clip0_3_278)">
    <path d="M37.6667 11.3507C37.6667 11.2577 37.6298 11.1685 37.564 11.1027C37.4982 11.0369 37.409 11 37.316 11H36.6827C36.5897 11 36.5005 11.0369 36.4347 11.1027C36.369 11.1685 36.332 11.2577 36.332 11.3507V26.6507C36.332 26.844 36.488 27.0013 36.6827 27.0013H37.316C37.3621 27.0013 37.4077 26.9923 37.4502 26.9746C37.4928 26.957 37.5314 26.9312 37.564 26.8986C37.5966 26.8661 37.6224 26.8274 37.64 26.7849C37.6576 26.7423 37.6667 26.6967 37.6667 26.6507V11.3507Z" fill="#66757F"/>
    <path d="M37 28.3334C38.1046 28.3334 39 27.4379 39 26.3334C39 25.2288 38.1046 24.3334 37 24.3334C35.8954 24.3334 35 25.2288 35 26.3334C35 27.4379 35.8954 28.3334 37 28.3334Z" fill="#F19020"/>
    <path d="M37 31C37.7363 31 38.3333 30.4031 38.3333 29.6667C38.3333 28.9303 37.7363 28.3334 37 28.3334C36.2636 28.3334 35.6666 28.9303 35.6666 29.6667C35.6666 30.4031 36.2636 31 37 31Z" fill="#F19020"/>
    <path d="M44.3334 11H38.828L13.2614 0.386707L13.2587 0.385374H13.2574C13.236 0.376041 13.2147 0.378707 13.1947 0.372041C13.132 0.353374 13.0694 0.333374 13 0.333374H12.9974C12.9105 0.333952 12.8245 0.35115 12.744 0.384041C12.6849 0.41263 12.6302 0.449439 12.5814 0.493374C12.5654 0.505374 12.5467 0.512041 12.532 0.526707C12.4686 0.588718 12.4187 0.663162 12.3854 0.745374C12.38 0.757374 12.3814 0.773374 12.3774 0.785374L4.98937 11.1987C4.98537 11.204 4.98537 11.212 4.98137 11.2174C4.78644 11.3319 4.62437 11.4948 4.51085 11.6903C4.39733 11.8858 4.3362 12.1073 4.33337 12.3334V15C4.33337 15.3537 4.47385 15.6928 4.7239 15.9429C4.97395 16.1929 5.31309 16.3334 5.66671 16.3334H7.66004L2.70804 45.3334H0.333374V48H25.6107V45.3334H23.2907L18.34 16.3334H44.3334C44.687 16.3334 45.0261 16.1929 45.2762 15.9429C45.5262 15.6928 45.6667 15.3537 45.6667 15V12.3334C45.6667 11.9798 45.5262 11.6406 45.2762 11.3906C45.0261 11.1405 44.687 11 44.3334 11ZM15.308 16.3334L13 18.1854L10.6934 16.3334H15.308ZM13 28.4L17.8894 31.6054L13 34.272L8.11071 31.6054L13 28.4ZM8.14804 29.3467L8.78004 25.6347L11.268 27.2654L8.14804 29.3467ZM14.732 27.2654L17.2254 25.632L17.8614 29.3507L14.732 27.2654ZM13 26.1107L9.22937 23.5974L13 20.5014L16.7707 23.5974L13 26.1107ZM9.58271 20.928L10.0654 18.092L11.5734 19.3294L9.58271 20.928ZM14.4267 19.3307L15.936 18.092L16.4214 20.932L14.4267 19.3307ZM6.76404 11L12.3334 3.14937V8.33337H9.66671C9.31308 8.33337 8.97395 8.47385 8.7239 8.7239C8.47385 8.97395 8.33337 9.31309 8.33337 9.66671V11H6.76404ZM7.47071 33.3174L11.1107 35.3027L6.72404 37.6947L7.47071 33.3174ZM20.5907 45.3334H5.42271L6.33737 39.968L13 36.3334L19.6747 39.9747L20.5907 45.3334ZM18.5374 33.3134L19.2867 37.7014L14.8894 35.3027L18.5374 33.3134ZM17.6667 11V9.66671C17.6667 9.31309 17.5262 8.97395 17.2762 8.7239C17.0261 8.47385 16.687 8.33337 16.3334 8.33337H13.6667V1.99871L35.3507 11H17.6667ZM20.3334 15H18.7867V12.3334H20.3334V15ZM24.3334 15H21.6667V12.3334H24.3334V15ZM28.3334 15H25.6667V12.3334H28.3334V15ZM32.3334 15H29.6667V12.3334H32.3334V15ZM36.3334 15H33.6667V12.3334H36.3334V15ZM40.3334 15H37.6667V12.3334H40.3334V15ZM44.3334 14.3334C44.3334 14.5102 44.2631 14.6798 44.1381 14.8048C44.0131 14.9298 43.8435 15 43.6667 15H41.6667V12.3334H43.6667C43.8435 12.3334 44.0131 12.4036 44.1381 12.5286C44.2631 12.6537 44.3334 12.8232 44.3334 13V14.3334Z" fill="#BD2032"/>
    <path d="M16.3334 9.66663H13.6667C13.3131 9.66663 12.9739 9.8071 12.7239 10.0572C12.4739 10.3072 12.3334 10.6463 12.3334 11V13.6666C12.3334 14.0202 12.4739 14.3594 12.7239 14.6094C12.9739 14.8595 13.3131 15 13.6667 15H17.6667V9.66663H16.3334Z" fill="#4B545D"/>
    <path d="M15 9.66663H17.6667V15H15V9.66663Z" fill="#CDD7DF"/>
    <path d="M46.4587 32V30.6666H27.5414V32H28.6667V35.292H27.5414V36.6253H46.4587V35.292H45.3334V32H46.4587Z" fill="#66757F"/>
  </g>
  <defs>
    <clipPath id="clip0_3_278">
      <rect width="48" height="48" fill="white"/>
    </clipPath>
  </defs>
</svg>