<svg xmlns="http://www.w3.org/2000/svg" width="32" height="32" viewBox="0 0 32 32" fill="none">
  <path opacity="0.4" d="M29.3337 15.9998C29.3337 23.3638 23.3643 29.3332 16.0003 29.3332C8.63633 29.3332 2.66699 23.3638 2.66699 15.9998C2.66699 8.63717 8.63633 2.6665 16.0003 2.6665C23.3643 2.6665 29.3337 8.63717 29.3337 15.9998Z" fill="#22495F"/>
  <path d="M21.1473 11.6065L18.9873 18.4331C18.9073 18.7131 18.6806 18.9398 18.4006 19.0211L11.6006 21.1531C11.1473 21.3011 10.7073 20.8598 10.8539 20.4065L12.9873 13.5665C13.0673 13.2865 13.2939 13.0731 13.5739 12.9798L20.4006 10.8465C20.8673 10.6998 21.2939 11.1398 21.1473 11.6065Z" fill="#22495F"/>
</svg>