<svg xmlns="http://www.w3.org/2000/svg" width="64" height="50" viewBox="0 0 64 50" fill="none">
  <g clip-path="url(#clip0_155_954)">
    <path d="M57.402 43.6359H53.2417V43.6674H57.402V43.6359Z" fill="#EBEBEB"/>
    <path d="M42.495 43.9778H41.4033V44.0093H42.495V43.9778Z" fill="#EBEBEB"/>
    <path d="M53.1159 42.4702H50.7056V42.5017H53.1159V42.4702Z" fill="#EBEBEB"/>
    <path d="M12.9062 42.6811H7.48145V42.7126H12.9062V42.6811Z" fill="#EBEBEB"/>
    <path d="M14.8205 42.6811H14.0254V42.7126H14.8205V42.6811Z" fill="#EBEBEB"/>
    <path d="M29.1722 43.2112H17.4053V43.2427H29.1722V43.2112Z" fill="#EBEBEB"/>
    <path d="M30.8373 36.0131H6.58228C6.39198 36.0131 6.20947 35.9375 6.07491 35.803C5.94034 35.6684 5.86475 35.4859 5.86475 35.2956V1.20298C5.86648 1.01383 5.94285 0.833005 6.07722 0.699862C6.2116 0.56672 6.39312 0.492027 6.58228 0.492035H30.8373C30.9315 0.491939 31.0248 0.510409 31.1118 0.546389C31.1989 0.582368 31.278 0.635153 31.3446 0.701724C31.4113 0.768295 31.4641 0.847348 31.5002 0.934363C31.5363 1.02138 31.5548 1.11465 31.5548 1.20884V35.2956C31.5548 35.4859 31.4792 35.6684 31.3447 35.803C31.2101 35.9375 31.0276 36.0131 30.8373 36.0131ZM6.58228 0.516929C6.40045 0.517316 6.22617 0.589721 6.0976 0.718298C5.96902 0.846874 5.89662 1.02115 5.89623 1.20298V35.2956C5.89662 35.4774 5.96902 35.6517 6.0976 35.7803C6.22617 35.9089 6.40045 35.9813 6.58228 35.9816H30.8373C31.0191 35.9813 31.1934 35.9089 31.322 35.7803C31.4506 35.6517 31.523 35.4774 31.5233 35.2956V1.20298C31.523 1.02115 31.4506 0.846874 31.322 0.718298C31.1934 0.589721 31.0191 0.517316 30.8373 0.516929H6.58228Z" fill="#EBEBEB"/>
    <path d="M58.0045 36.0131H33.7503C33.56 36.0131 33.3774 35.9375 33.2429 35.803C33.1083 35.6684 33.0327 35.4859 33.0327 35.2956V1.20298C33.0345 1.01383 33.1108 0.833005 33.2452 0.699862C33.3796 0.56672 33.5611 0.492027 33.7503 0.492035H58.0045C58.0987 0.491939 58.192 0.510409 58.2791 0.546389C58.3661 0.582368 58.4452 0.635153 58.5119 0.701724C58.5785 0.768295 58.6314 0.847348 58.6674 0.934363C58.7035 1.02138 58.7221 1.11465 58.7221 1.20884V35.2956C58.7221 35.4859 58.6465 35.6684 58.5119 35.803C58.3773 35.9375 58.1948 36.0131 58.0045 36.0131ZM33.7503 0.516929C33.5684 0.517316 33.3941 0.589721 33.2656 0.718298C33.137 0.846874 33.0646 1.02115 33.0642 1.20298V35.2956C33.0646 35.4774 33.137 35.6517 33.2656 35.7803C33.3941 35.9089 33.5684 35.9813 33.7503 35.9816H58.0045C58.1864 35.9813 58.3606 35.9089 58.4892 35.7803C58.6178 35.6517 58.6902 35.4774 58.6906 35.2956V1.20298C58.6902 1.02115 58.6178 0.846874 58.4892 0.718298C58.3606 0.589721 58.1864 0.517316 58.0045 0.516929H33.7503Z" fill="#EBEBEB"/>
    <path d="M63.6945 41.6151H0.891602V41.6465H63.6945V41.6151Z" fill="#EBEBEB"/>
    <path d="M26.0778 26.7862H10.9268V15.1049L11.0812 14.9585C13.0736 13.0394 15.7342 11.9705 18.5005 11.9778C21.2671 11.9705 23.9282 13.0394 25.9211 14.9585L26.0749 15.1049L26.0778 26.7862ZM11.9313 25.7809H25.0696V15.5303C23.2769 13.8862 20.9329 12.9741 18.5005 12.9741C16.068 12.9741 13.724 13.8862 11.9313 15.5303V25.7809Z" fill="#E6E6E6"/>
    <path d="M25.2607 19.9842V19.2308H18.8775V12.8476H18.1234V19.2308H11.7417V19.9842H18.1234V25.9068H18.8775V19.9842H25.2607Z" fill="#F5F5F5"/>
    <path d="M26.5772 27.2884H10.4238V14.8977L10.5703 14.7513C12.6746 12.6512 15.5261 11.4717 18.4991 11.4717C21.472 11.4717 24.3236 12.6512 26.4279 14.7513L26.5743 14.8977L26.5772 27.2884ZM11.4291 26.2853H25.5719V15.3129C23.6693 13.4895 21.1358 12.4716 18.5005 12.4716C15.8652 12.4716 13.3318 13.4895 11.4291 15.3129V26.2853Z" fill="#F5F5F5"/>
    <path d="M56.6407 12.6807H50.0942V41.6319H56.6407V12.6807Z" fill="#E6E6E6"/>
    <path d="M52.0255 12.6814H36.0347V41.6326H52.0255V12.6814Z" fill="#F5F5F5"/>
    <path d="M42.2407 13.5871H36.9141V40.7269H42.2407V13.5871Z" fill="#EBEBEB"/>
    <path d="M50.9642 13.5871H43.1519V40.7269H50.9642V13.5871Z" fill="#EBEBEB"/>
    <path d="M42.2418 22.3323H37.3984V23.7469H42.2418V22.3323Z" fill="#F5F5F5"/>
    <path d="M50.965 22.3323H44.0957V23.7469H50.965V22.3323Z" fill="#F5F5F5"/>
    <path d="M42.2418 30.778H37.3984V32.1926H42.2418V30.778Z" fill="#F5F5F5"/>
    <path d="M50.965 30.778H44.0957V32.1926H50.965V30.778Z" fill="#F5F5F5"/>
    <path d="M46.5498 32.9819H45.8022V40.7269H46.5498V32.9819Z" fill="#E0E0E0"/>
    <path d="M47.2974 33.6519H46.5498V40.7269H47.2974V33.6519Z" fill="#E0E0E0"/>
    <path d="M45.8037 33.6519H45.0562V40.7269H45.8037V33.6519Z" fill="#FAFAFA"/>
    <path d="M50.1324 33.6519H49.5518V40.7269H50.1324V33.6519Z" fill="#E0E0E0"/>
    <path d="M50.9658 33.1049H50.1318V40.7269H50.9658V33.1049Z" fill="#F0F0F0"/>
    <path d="M48.4242 33.6519H47.2974V40.7269H48.4242V33.6519Z" fill="#F5F5F5"/>
    <path d="M49.5502 33.2081H48.4233V40.7269H49.5502V33.2081Z" fill="#E6E6E6"/>
    <path d="M51.0049 24.3619H50.2573V30.8234H51.0049V24.3619Z" fill="#E0E0E0"/>
    <path d="M50.2573 24.9206H49.5098V30.8227H50.2573V24.9206Z" fill="#E6E6E6"/>
    <path d="M47.2569 24.9206H46.6763V30.8227H47.2569V24.9206Z" fill="#E0E0E0"/>
    <path d="M46.6762 24.4651H45.8423V30.8234H46.6762V24.4651Z" fill="#F0F0F0"/>
    <path d="M45.8462 24.4651H45.0122V30.8234H45.8462V24.4651Z" fill="#F5F5F5"/>
    <path d="M49.5116 24.9206H48.3848V30.8227H49.5116V24.9206Z" fill="#F5F5F5"/>
    <path d="M48.3837 24.5501H47.2568V30.8227H48.3837V24.5501Z" fill="#E6E6E6"/>
    <path d="M46.5498 17.0013H45.8022V22.3323H46.5498V17.0013Z" fill="#FAFAFA"/>
    <path d="M47.2974 16.4294H46.5498V22.3316H47.2974V16.4294Z" fill="#E0E0E0"/>
    <path d="M45.8037 16.4294H45.0562V22.3316H45.8037V16.4294Z" fill="#E0E0E0"/>
    <path d="M50.1324 16.4294H49.5518V22.3316H50.1324V16.4294Z" fill="#E0E0E0"/>
    <path d="M50.9658 17.4926H50.1318V22.3338H50.9658V17.4926Z" fill="#E0E0E0"/>
    <path d="M48.4242 16.4294H47.2974V22.3316H48.4242V16.4294Z" fill="#F5F5F5"/>
    <path d="M49.5502 16.0604H48.4233V22.333H49.5502V16.0604Z" fill="#E6E6E6"/>
    <path d="M42.1052 22.5292L39.8926 17.8916L37.6777 22.5292H42.1052Z" fill="#E0E0E0"/>
    <path d="M37.6777 22.5292L39.8926 17.8916V22.5292H37.6777Z" fill="#F5F5F5"/>
    <path d="M39.7528 29.4176C40.4471 29.4176 41.0099 28.8548 41.0099 28.1605C41.0099 27.4662 40.4471 26.9033 39.7528 26.9033C39.0585 26.9033 38.4956 27.4662 38.4956 28.1605C38.4956 28.8548 39.0585 29.4176 39.7528 29.4176Z" fill="#FAFAFA"/>
    <path d="M38.5025 28.0521V28.1473C38.2514 28.1854 38.0903 28.2344 38.0903 28.2886C38.0903 28.4036 38.8078 28.4966 39.6916 28.4966C40.5753 28.4966 41.2943 28.4036 41.2943 28.2886C41.2943 28.244 41.1918 28.2044 41.0154 28.17V28.0646C41.5279 28.1158 41.8574 28.1964 41.8574 28.2886C41.8574 28.4438 40.8902 28.5712 39.6952 28.5712C38.5003 28.5712 37.5338 28.4453 37.5338 28.2886C37.5251 28.189 37.9146 28.1026 38.5025 28.0521Z" fill="#E0E0E0"/>
    <path d="M40.0259 25.9573C40.091 26.0805 40.1912 26.1815 40.3138 26.2477C40.4364 26.3139 40.5759 26.3422 40.7146 26.3292C40.8533 26.3161 40.985 26.2621 41.0931 26.1742C41.2011 26.0862 41.2807 25.9682 41.3216 25.8351C41.3626 25.7019 41.3632 25.5596 41.3233 25.4261C41.2833 25.2926 41.2047 25.174 41.0974 25.0852C40.99 24.9964 40.8587 24.9414 40.7201 24.9272C40.5815 24.913 40.4418 24.9403 40.3187 25.0055C40.1538 25.093 40.0304 25.2424 39.9755 25.4209C39.9206 25.5993 39.9387 25.7922 40.0259 25.9573Z" fill="#FAFAFA"/>
    <path d="M40.0006 25.9017C40.0071 25.9185 40.0147 25.9349 40.0233 25.9507C39.9068 26.0371 39.8424 26.103 39.8563 26.1294C39.8863 26.1858 40.2656 26.0437 40.7042 25.8102C41.1428 25.5766 41.47 25.3401 41.4364 25.2823C41.4254 25.261 41.3631 25.2683 41.2672 25.2991V25.2925L41.2394 25.2471C41.5059 25.138 41.6904 25.0904 41.7139 25.1358C41.7556 25.209 41.3112 25.5297 40.7203 25.8453C40.1294 26.1609 39.622 26.3476 39.5774 26.2758C39.5539 26.2282 39.7231 26.0825 40.0006 25.9017Z" fill="#E0E0E0"/>
    <path d="M38.0793 24.8276L38.0127 24.9623C38.0015 24.9849 37.985 25.0045 37.9646 25.0194C37.9442 25.0344 37.9205 25.0441 37.8955 25.048L37.7491 25.0692C37.708 25.0757 37.6711 25.0982 37.6465 25.1318C37.622 25.1654 37.6117 25.2074 37.618 25.2486C37.6231 25.2815 37.6388 25.3118 37.6627 25.335L37.7703 25.4404C37.7886 25.458 37.8023 25.4798 37.8103 25.504C37.8182 25.5281 37.8201 25.5538 37.8157 25.5788L37.7908 25.7252C37.7855 25.7539 37.7884 25.7835 37.7992 25.8106C37.81 25.8377 37.8283 25.8612 37.8519 25.8784C37.8755 25.8955 37.9034 25.9056 37.9325 25.9076C37.9616 25.9095 37.9907 25.9031 38.0163 25.8892L38.1496 25.816C38.1722 25.8043 38.1973 25.7982 38.2228 25.7982C38.2483 25.7982 38.2734 25.8043 38.296 25.816L38.4293 25.8892C38.455 25.9027 38.484 25.9088 38.513 25.9067C38.5419 25.9046 38.5698 25.8945 38.5933 25.8774C38.6168 25.8604 38.6351 25.8371 38.6461 25.8102C38.6571 25.7833 38.6604 25.7539 38.6555 25.7252L38.6299 25.5788C38.6256 25.5538 38.6275 25.5281 38.6354 25.504C38.6433 25.4798 38.657 25.458 38.6753 25.4404L38.7822 25.335C38.7967 25.3206 38.8083 25.3035 38.8161 25.2847C38.824 25.2658 38.828 25.2456 38.828 25.2252C38.828 25.2047 38.824 25.1845 38.8161 25.1657C38.8083 25.1468 38.7967 25.1297 38.7822 25.1153C38.7586 25.0897 38.7267 25.0734 38.6921 25.0692L38.5457 25.048C38.5206 25.0444 38.4967 25.0347 38.4762 25.0197C38.4556 25.0048 38.439 24.9851 38.4278 24.9623L38.3612 24.8276C38.3485 24.8013 38.3287 24.779 38.3039 24.7635C38.2792 24.748 38.2506 24.7397 38.2214 24.7397C38.1921 24.7397 38.1635 24.748 38.1388 24.7635C38.114 24.779 38.0942 24.8013 38.0815 24.8276H38.0793Z" fill="#FAFAFA"/>
    <path d="M41.2853 26.6668L41.2538 26.7305C41.2485 26.7414 41.2405 26.7507 41.2307 26.7577C41.2208 26.7648 41.2094 26.7693 41.1974 26.7708L41.1242 26.781C41.1145 26.7824 41.1052 26.7856 41.0969 26.7906C41.0885 26.7956 41.0812 26.8022 41.0754 26.81C41.0696 26.8179 41.0654 26.8268 41.0631 26.8363C41.0608 26.8458 41.0604 26.8556 41.062 26.8652C41.0642 26.8808 41.0714 26.8951 41.0825 26.9062L41.1345 26.9553C41.143 26.964 41.1493 26.9745 41.153 26.9861C41.1567 26.9977 41.1576 27.0099 41.1557 27.0219L41.1432 27.0915C41.1415 27.1013 41.1417 27.1113 41.144 27.121C41.1462 27.1307 41.1504 27.1399 41.1563 27.1479C41.1622 27.1559 41.1697 27.1626 41.1782 27.1677C41.1868 27.1727 41.1963 27.1759 41.2062 27.1772C41.2214 27.1797 41.237 27.1774 41.2509 27.1706L41.3138 27.1362C41.3244 27.1305 41.3363 27.1276 41.3483 27.1276C41.3603 27.1276 41.3721 27.1305 41.3827 27.1362L41.4456 27.1706C41.4545 27.1753 41.4642 27.1781 41.4741 27.1789C41.4841 27.1797 41.4941 27.1784 41.5036 27.1752C41.5131 27.172 41.5218 27.1669 41.5292 27.1601C41.5366 27.1534 41.5425 27.1453 41.5467 27.1362C41.5538 27.1224 41.5563 27.1068 41.554 27.0915L41.5423 27.0219C41.5399 27.01 41.5405 26.9977 41.5441 26.986C41.5477 26.9744 41.5541 26.9638 41.5628 26.9553L41.614 26.9062C41.621 26.8994 41.6266 26.8913 41.6303 26.8823C41.6341 26.8733 41.6361 26.8637 41.6361 26.8539C41.6361 26.8441 41.6341 26.8345 41.6303 26.8255C41.6266 26.8165 41.621 26.8084 41.614 26.8015C41.6027 26.7904 41.5881 26.7832 41.5723 26.781L41.4991 26.7708C41.4874 26.769 41.4762 26.7644 41.4667 26.7574C41.4571 26.7504 41.4494 26.7412 41.4442 26.7305L41.4127 26.6668C41.4069 26.654 41.3975 26.6432 41.3857 26.6356C41.3739 26.628 41.3601 26.624 41.3461 26.624C41.332 26.624 41.3183 26.628 41.3064 26.6356C41.2946 26.6432 41.2853 26.654 41.2794 26.6668H41.2853Z" fill="#FAFAFA"/>
    <path d="M41.7044 34.9478H38.7661V35.5885H41.7044V34.9478Z" fill="#E6E6E6"/>
    <path d="M38.8186 34.9478H37.3506V35.5885H38.8186V34.9478Z" fill="#FAFAFA"/>
    <path d="M41.3661 35.5885H38.9141V40.7269H41.3661V35.5885Z" fill="#E0E0E0"/>
    <path d="M38.8624 35.5885H37.688V40.7269H38.8624V35.5885Z" fill="#F5F5F5"/>
    <path d="M45.9001 6.17012C41.2915 6.16572 36.7079 5.4914 32.2932 4.16833C24.4779 6.5018 17.7126 6.3766 13.411 5.85748C9.20315 5.35447 6.46698 4.3836 5.95006 4.1903C5.93851 4.18627 5.92787 4.18001 5.91875 4.17186C5.90963 4.16372 5.90221 4.15386 5.8969 4.14284C5.8916 4.13182 5.88852 4.11987 5.88784 4.10766C5.88716 4.09545 5.8889 4.08322 5.89295 4.07169C5.89267 4.0695 5.89267 4.06728 5.89295 4.0651C5.89744 4.05348 5.90423 4.0429 5.91292 4.03398C5.92161 4.02507 5.93202 4.018 5.94351 4.01321C5.955 4.00842 5.96735 4.00601 5.9798 4.00612C5.99225 4.00623 6.00455 4.00886 6.01596 4.01384C6.51823 4.20348 9.24415 5.16923 13.4403 5.6715C17.7257 6.18403 24.4684 6.3085 32.2574 3.9787H32.3247C40.1122 6.30997 46.8637 6.1855 51.1491 5.6715C55.3445 5.16923 58.058 4.20714 58.5676 4.01384C58.579 4.00951 58.5911 4.00747 58.6033 4.00785C58.6155 4.00823 58.6275 4.01102 58.6386 4.01606C58.6497 4.02109 58.6597 4.02828 58.668 4.0372C58.6763 4.04612 58.6827 4.0566 58.687 4.06803C58.692 4.07912 58.6947 4.0911 58.6951 4.10327C58.6954 4.11544 58.6933 4.12755 58.689 4.13892C58.6846 4.15028 58.6781 4.16068 58.6697 4.16949C58.6613 4.17831 58.6512 4.18538 58.6401 4.1903H58.6328C58.1181 4.38652 55.3819 5.3552 51.174 5.85748C49.4239 6.06667 47.6628 6.17107 45.9001 6.17012Z" fill="#E0E0E0"/>
    <path d="M9.22314 5.07623L9.76862 8.69761L12.2075 5.60414C12.2075 5.60414 10.8566 6.18549 9.22314 5.07623Z" fill="#F0F0F0"/>
    <path d="M41.1816 5.96655L42.3685 9.37852L43.9185 6.21403C43.9185 6.21403 42.7807 6.97404 41.1816 5.96655Z" fill="#F0F0F0"/>
    <path d="M25.3677 5.68539C25.3677 5.68539 26.887 6.40366 28.642 5.0213L29.1384 9.14715L27.3673 8.48818L25.9666 9.32946L25.3677 5.68539Z" fill="#F5F5F5"/>
    <path d="M25.3677 5.68539L25.9666 9.328L27.3673 8.48672L27.0378 5.79961C26.4823 5.93084 25.9001 5.89102 25.3677 5.68539Z" fill="#EBEBEB"/>
    <path d="M36.6493 5.22047L37.0418 6.01855C37.0593 6.05398 37.0854 6.08453 37.1175 6.10752C37.1497 6.1305 37.1871 6.14521 37.2263 6.15035L38.1049 6.27628C38.1492 6.28469 38.1904 6.30484 38.2243 6.33462C38.2581 6.3644 38.2834 6.40272 38.2973 6.44559C38.3113 6.48845 38.3136 6.53428 38.3038 6.5783C38.294 6.62231 38.2726 6.6629 38.2418 6.69582L37.607 7.31378C37.5781 7.34187 37.5564 7.37648 37.5437 7.4147C37.5309 7.45292 37.5275 7.49364 37.5338 7.53344L37.6802 8.40473C37.686 8.44946 37.6797 8.49491 37.6618 8.53633C37.644 8.57774 37.6153 8.61359 37.5788 8.64011C37.5423 8.66662 37.4994 8.68282 37.4545 8.68702C37.4096 8.69121 37.3644 8.68323 37.3237 8.66393L36.5483 8.25171C36.5132 8.23299 36.4741 8.2232 36.4344 8.2232C36.3947 8.2232 36.3556 8.23299 36.3206 8.25171L35.5327 8.65587C35.492 8.67487 35.447 8.68264 35.4023 8.67836C35.3575 8.67409 35.3148 8.65793 35.2784 8.63157C35.242 8.6052 35.2134 8.56959 35.1954 8.52842C35.1774 8.48724 35.1708 8.44201 35.1762 8.39741L35.3226 7.52538C35.3292 7.48558 35.3259 7.44477 35.3132 7.4065C35.3004 7.36822 35.2785 7.33363 35.2494 7.30573L34.6153 6.68777C34.584 6.65504 34.5622 6.61444 34.5521 6.57028C34.5421 6.52613 34.5442 6.48008 34.5583 6.43703C34.5723 6.39399 34.5978 6.35556 34.6319 6.32583C34.6661 6.2961 34.7077 6.2762 34.7522 6.26823L35.6308 6.14229C35.6693 6.13787 35.7062 6.12433 35.7384 6.10281C35.7706 6.0813 35.7973 6.05241 35.8161 6.01855L36.2078 5.22487C36.24 5.16672 36.2938 5.12363 36.3575 5.10498C36.4213 5.08633 36.4899 5.09363 36.5483 5.12529C36.5901 5.14709 36.6251 5.18003 36.6493 5.22047Z" fill="#F5F5F5"/>
    <path d="M48.988 6.06613L48.2456 8.27293L50.1317 10.1217L50.9649 7.592L48.988 6.06613Z" fill="#F5F5F5"/>
    <path d="M19.2848 9.07472C20.0249 8.54135 20.1924 7.509 19.6591 6.7689C19.1257 6.02881 18.0933 5.86124 17.3532 6.39461C16.6131 6.92799 16.4456 7.96035 16.979 8.70044C17.5123 9.44053 18.5447 9.6081 19.2848 9.07472Z" fill="#F0F0F0"/>
    <path d="M16.6751 7.59201V7.71795C16.339 7.767 16.1326 7.8307 16.1326 7.90246C16.1326 8.05475 17.0763 8.17776 18.2383 8.17776C19.4003 8.17776 20.3441 8.05182 20.3441 7.90246C20.3441 7.84461 20.2086 7.79043 19.978 7.7465V7.60739C20.6501 7.67475 21.085 7.78091 21.085 7.90026C21.085 8.10527 19.8125 8.27733 18.2434 8.27733C16.6744 8.27733 15.404 8.11113 15.404 7.90026C15.3916 7.77652 15.9005 7.65717 16.6751 7.59201Z" fill="#E0E0E0"/>
    <path d="M53.8875 6.70826C53.9546 6.96992 54.0979 7.20579 54.299 7.38607C54.5002 7.56635 54.7503 7.68294 55.0178 7.72111C55.2852 7.75929 55.5579 7.71733 55.8015 7.60053C56.0451 7.48374 56.2486 7.29736 56.3863 7.06495C56.524 6.83253 56.5897 6.56452 56.5751 6.29478C56.5605 6.02503 56.4663 5.76567 56.3043 5.54946C56.1423 5.33326 55.9199 5.16992 55.6652 5.08008C55.4104 4.99025 55.1347 4.97795 54.873 5.04475C54.699 5.08924 54.5356 5.16756 54.3919 5.27525C54.2482 5.38293 54.1271 5.51787 54.0356 5.67235C53.9441 5.82683 53.8839 5.99782 53.8585 6.17557C53.8331 6.35331 53.8429 6.53433 53.8875 6.70826Z" fill="#F0F0F0"/>
    <path d="M53.8633 6.58965C53.8661 6.62456 53.8733 6.65899 53.8845 6.69215C53.6246 6.80051 53.4731 6.8935 53.487 6.94329C53.5177 7.06923 54.299 6.97258 55.2325 6.73389C56.166 6.49519 56.8953 6.20379 56.8653 6.08224C56.8543 6.03685 56.7401 6.02147 56.5402 6.03319V6.02147C56.5314 5.98779 56.5211 5.95484 56.5101 5.92263C57.0629 5.83989 57.4334 5.8355 57.4569 5.93141C57.5001 6.09615 56.5138 6.49007 55.2552 6.81003C53.9966 7.13 52.94 7.27058 52.8924 7.10291C52.8712 6.99967 53.2578 6.80344 53.8633 6.58965Z" fill="#E0E0E0"/>
    <path d="M14.4517 34.9602C14.4517 34.9602 7.12991 36.7907 7.92799 41.5982C7.92799 41.5982 8.67189 43.4287 11.9909 44.2882C11.9909 44.2882 19.6598 47.5501 22.0635 47.7214C24.4673 47.8928 30.075 50.0681 36.0841 46.577C36.0841 46.577 40.6624 43.8299 46.7278 44.2341C46.7278 44.2341 59.0102 46.3625 56.9359 40.1968C56.9359 40.1968 56.7755 39.3497 53.3035 38.7097" fill="#D1D3D4"/>
    <path d="M32.7855 43.3408C42.9522 43.3408 51.194 40.6865 51.194 37.4123C51.194 34.1381 42.9522 31.4838 32.7855 31.4838C22.6187 31.4838 14.377 34.1381 14.377 37.4123C14.377 40.6865 22.6187 43.3408 32.7855 43.3408Z" fill="#BCBEC0"/>
    <path opacity="0.3" d="M32.5686 41.6619C40.4627 41.6619 46.8622 39.638 46.8622 37.1414C46.8622 34.6448 40.4627 32.6209 32.5686 32.6209C24.6744 32.6209 18.2749 34.6448 18.2749 37.1414C18.2749 39.638 24.6744 41.6619 32.5686 41.6619Z" fill="black"/>
    <path opacity="0.3" d="M16.6958 41.9174C19.9454 41.9174 22.5796 40.6226 22.5796 39.0253C22.5796 37.4281 19.9454 36.1332 16.6958 36.1332C13.4463 36.1332 10.812 37.4281 10.812 39.0253C10.812 40.6226 13.4463 41.9174 16.6958 41.9174Z" fill="black"/>
    <path opacity="0.3" d="M25.8626 34.6864C28.2254 34.6864 30.1408 34.0642 30.1408 33.2967C30.1408 32.5292 28.2254 31.907 25.8626 31.907C23.4999 31.907 21.5845 32.5292 21.5845 33.2967C21.5845 34.0642 23.4999 34.6864 25.8626 34.6864Z" fill="black"/>
    <path opacity="0.3" d="M50.3616 43.4543C52.7244 43.4543 54.6398 42.8321 54.6398 42.0646C54.6398 41.2971 52.7244 40.6749 50.3616 40.6749C47.9989 40.6749 46.0835 41.2971 46.0835 42.0646C46.0835 42.8321 47.9989 43.4543 50.3616 43.4543Z" fill="black"/>
    <path d="M23.6177 30.852C23.6177 30.852 21.9176 30.9647 22.5341 32.3097C22.5341 32.3097 23.0203 33.5054 25.6356 33.6738C25.6356 33.6738 27.6908 33.7111 28.158 33.5618C28.2432 33.3892 28.2844 33.1981 28.2779 33.0057C28.2714 32.8133 28.2174 32.6255 28.1206 32.4591C28.1206 32.4591 29.0505 31.5841 29.9555 32.1567C29.9797 32.1721 30.0018 32.1906 30.0214 32.2116C30.0946 32.2885 30.2571 32.4884 30.2132 32.6648C30.2132 32.6648 31.824 31.7577 31.3203 30.6645C31.3203 30.6645 31.0603 30.1857 30.3567 30.1703C30.1397 30.1688 29.9246 30.2109 29.7241 30.294L28.4757 30.7963L23.6177 30.852Z" fill="#656478"/>
    <path d="M28.5889 27.5447L28.482 30.6323L28.4761 30.7956L27.6539 31.4685C26.8595 32.1963 25.8717 31.9532 25.3841 31.7613C25.2827 31.7214 25.196 31.6512 25.1359 31.5603C25.0758 31.4694 25.0451 31.3622 25.048 31.2532C25.048 31.2532 25.048 31.2532 25.048 31.2481C25.0634 30.6623 25.2677 29.7698 25.2677 29.7698C23.6796 30.0312 23.6239 30.8527 23.6239 30.8527L23.3618 28.0316C23.3794 27.2709 23.6964 26.8242 24.0288 26.5672C24.2546 26.392 24.5193 26.2737 24.8006 26.2224L26.2027 26.2407H27.1736C28.5676 26.2934 28.5889 27.5447 28.5889 27.5447Z" fill="#9ABB54"/>
    <path opacity="0.3" d="M27.0891 27.1471C27.0895 27.1525 27.0888 27.158 27.087 27.1631C27.0851 27.1682 27.0823 27.1728 27.0786 27.1768C27.0748 27.1807 27.0703 27.1838 27.0653 27.1859C27.0603 27.188 27.055 27.189 27.0495 27.1889L25.8583 27.153L25.2293 27.7819C25.2143 27.7968 25.1963 27.8083 25.1765 27.8158C25.1568 27.8234 25.1357 27.8267 25.1145 27.8257C25.0934 27.8247 25.0727 27.8193 25.0538 27.8098C25.0349 27.8004 25.0181 27.7872 25.0046 27.7709L24.0234 26.5636C24.2492 26.3883 24.514 26.27 24.7952 26.2187L26.1973 26.237H27.0151L27.0891 27.1471Z" fill="black"/>
    <path d="M16.4761 30.037L16.5237 30.7802L15.9504 30.7875L15.875 29.917L16.4761 30.037Z" fill="#F7A48B"/>
    <path d="M35.9854 33.7133C35.9854 33.7133 35.18 34.477 35.4553 35.4969C35.4708 35.558 35.5077 35.6115 35.5593 35.6477C35.6109 35.6838 35.6738 35.7002 35.7364 35.6939C35.8521 35.6793 36.0132 35.6148 36.2255 35.4376C36.5045 35.1997 36.811 34.9961 37.1386 34.8314L38.2786 34.2661C38.2786 34.2661 36.9892 34.7948 36.9519 33.8759L35.9854 33.7133Z" fill="#9ABB54"/>
    <path d="M36.9517 33.8788L38.7331 34.0838L38.2784 34.2661L37.8332 34.4858C37.8332 34.4858 36.9561 34.5436 36.9517 33.8788Z" fill="#F9B499"/>
    <path d="M46.7256 30.1073C46.7256 30.1073 50.1325 30.4083 51.0382 31.2788C51.0382 31.2788 52.4872 33.4519 48.9375 33.4519C48.9375 33.4519 47.4161 33.3436 45.0621 33.9593L40.0664 32.6553L40.3197 30.9896C40.3197 30.9896 45.784 29.6614 46.7256 30.1073Z" fill="#656478"/>
    <path opacity="0.3" d="M46.7256 30.1073C46.7256 30.1073 50.1325 30.4083 51.0382 31.2788C51.0382 31.2788 52.4872 33.4519 48.9375 33.4519C48.9375 33.4519 47.4161 33.3436 45.0621 33.9593L40.0664 32.6553L40.3197 30.9896C40.3197 30.9896 45.784 29.6614 46.7256 30.1073Z" fill="black"/>
    <path d="M44.3927 32.4423C44.2258 32.2705 44.0319 32.1273 43.8186 32.0183C43.3676 31.7906 42.6259 31.5842 42.0614 32.2556C41.1872 33.2901 43.4752 34.6212 43.4752 34.6212C43.4752 34.6212 44.9396 35.3432 45.4126 35.77C45.4984 35.8486 45.5951 35.9145 45.6996 35.9655C45.9412 36.0798 46.2993 36.15 46.374 35.6126C46.3983 35.4292 46.378 35.2425 46.3146 35.0686C46.1638 34.6579 45.7201 33.7902 44.3927 32.4423Z" fill="#9ABB54"/>
    <path d="M38.7256 15.9411C38.7256 15.9411 38.7988 18.5579 39.5141 19.3355L42.3828 18.3375L42.5512 17.7701L41.647 15.8576L38.7256 15.9411Z" fill="#656478"/>
    <path opacity="0.3" d="M38.7256 15.9411C38.7256 15.9411 38.8252 18.6428 39.5398 19.4204L42.3828 18.3375L42.5512 17.7701L41.647 15.8576L38.7256 15.9411Z" fill="black"/>
    <path d="M47.0586 23.785C46.1853 23.8588 45.3471 24.1619 44.6285 24.6636C44.6285 24.6636 44.6226 25.6059 44.7244 26.6478C44.8335 27.7534 45.0634 28.9688 45.5525 29.2836L46.9436 30.1352C46.9436 30.1352 43.6957 30.428 40.9002 31.396C40.9002 31.396 38.4964 32.0689 36.3944 30.6675C36.3944 30.6675 34.7879 29.5406 34.0148 28.9937C34.0086 28.9889 34.0042 28.9821 34.0024 28.9746C34.0006 28.967 34.0014 28.959 34.0047 28.9519C34.0081 28.9448 34.0137 28.9391 34.0207 28.9356C34.0277 28.9322 34.0357 28.9312 34.0433 28.9329C34.5141 29.0647 35.742 29.3481 36.8703 29.1138C37.7489 28.9315 38.566 28.4336 38.9204 27.3038C38.9204 27.3038 39.6211 25.2303 39.5933 23.5206L38.5067 20.4579L39.3121 19.0968C39.3121 19.0968 40.1622 18.0505 40.7457 18.3185C40.7457 18.3185 40.9405 18.0988 41.6207 18.1479L43.6635 18.0996C43.6635 18.0996 46.2649 17.6602 47.0666 21.2355C47.0586 21.2333 48.1049 23.6649 47.0586 23.785Z" fill="#9ABB54"/>
    <path d="M44.5823 24.9762C44.4652 23.0081 45.5576 18.6692 45.5576 18.6692C45.5576 18.6692 45.2208 18.2211 44.2961 18.1083L43.6188 20.8174C43.5666 21.0293 43.4538 21.2214 43.2943 21.3702C43.1348 21.5191 42.9354 21.6183 42.7204 21.6558C41.9714 21.7832 40.9134 21.7685 40.8768 20.6864L40.7376 18.3148C40.7376 18.3148 40.0926 18.0798 39.5596 18.8925C39.5596 18.8925 39.8964 21.748 39.5881 23.517" fill="#9ABB54"/>
    <path opacity="0.3" d="M44.5823 24.9762C44.4652 23.0081 45.5576 18.6692 45.5576 18.6692C45.5576 18.6692 45.2208 18.2211 44.2961 18.1083L43.6188 20.8174C43.5666 21.0293 43.4538 21.2214 43.2943 21.3702C43.1348 21.5191 42.9354 21.6183 42.7204 21.6558C41.9714 21.7832 40.9134 21.7685 40.8768 20.6864L40.7376 18.3148C40.7376 18.3148 40.0926 18.0798 39.5596 18.8925C39.5596 18.8925 39.8964 21.748 39.5881 23.517" fill="white"/>
    <path d="M41.516 17.4647L41.6134 18.1449C41.6134 18.1449 41.2239 18.1208 41.3703 18.511C41.3703 18.511 41.5168 19.2652 42.1721 19.2161C42.1721 19.2161 43.509 19.1202 43.6555 18.0981C43.6555 18.0981 43.3392 17.6126 43.2425 16.7369L43.2733 15.7346L41.516 17.4647Z" fill="#F9B499"/>
    <path d="M41.5161 17.4647L41.6135 18.1449C41.6135 18.1449 42.8048 17.7561 42.5126 16.4675L41.5161 17.4647Z" fill="#F7A48B"/>
    <path d="M43.2733 15.7331C43.0639 16.7523 42.4562 17.535 41.6068 17.7225C40.655 17.9319 39.5926 17.3285 38.938 16.2874C38.772 16.0245 38.6374 15.7432 38.5368 15.449C38.7067 14.7732 38.3801 13.888 38.3801 13.888C38.3603 13.8426 38.3413 13.7965 38.3252 13.7504C38.4416 12.4764 39.1811 11.4462 40.1747 11.2265C40.9735 11.0501 41.7994 11.4411 42.4093 12.1842C42.8236 12.6999 43.1105 13.3059 43.2469 13.9532C43.2579 13.9986 43.2667 14.0447 43.2755 14.0916C43.2843 14.1384 43.2887 14.1648 43.2945 14.1999C43.3136 14.3156 43.3275 14.4306 43.3377 14.5441C43.3743 14.9414 43.3526 15.342 43.2733 15.7331Z" fill="#F9B499"/>
    <path d="M46.2084 19.263C45.4455 18.2489 44.4556 18.1449 44.4556 18.1449L43.6502 18.0966C43.4064 17.7305 43.2372 16.7355 43.2372 16.7355C43.2372 16.4726 43.2504 16.0985 43.268 15.7331C43.2921 15.1935 43.3243 14.6707 43.3324 14.5492C43.3324 14.5338 43.3324 14.5243 43.3324 14.5243C43.3207 14.4137 43.3053 14.3046 43.2877 14.2051C43.2819 14.1684 43.276 14.1318 43.2687 14.0967C43.2614 14.0615 43.2511 14.0037 43.2402 13.9583C43.0293 12.9823 42.6273 12.4581 42.6273 12.4581C42.5657 12.3581 42.49 12.2676 42.4025 12.1894C41.7436 11.6124 40.9257 12.5071 40.9257 12.5071C39.8318 13.3857 39.3208 12.9201 39.3208 12.9201C38.8815 12.6528 38.6398 12.7985 38.6398 12.7985C38.6398 12.7985 38.4575 12.9816 38.5622 13.3594C38.6807 13.7551 38.7648 14.1602 38.8134 14.5704C38.8632 15.0829 38.9181 15.7419 38.9378 16.291C38.9459 16.5319 38.9474 16.753 38.9378 16.9332C38.9378 16.9332 38.8412 17.9546 39.3508 18.5864C39.3508 18.5864 39.5705 18.708 39.3032 19.099L38.4978 20.4601C38.4978 20.4601 38.4246 20.1196 38.9371 19.2681C38.9371 19.2681 39.3991 18.6824 38.7175 17.8345C37.9853 16.9207 38.5234 15.5003 38.5234 15.5003C38.5279 15.4861 38.5315 15.4717 38.5344 15.4571C38.7043 14.7813 38.3777 13.8961 38.3777 13.8961C38.358 13.8507 38.3389 13.8046 38.3228 13.7584C38.2834 13.6478 38.2511 13.5349 38.2262 13.4202C38.1412 13.0175 38.1401 12.6017 38.2229 12.1986C38.3056 11.7955 38.4705 11.4138 38.7072 11.0772C39.6803 9.68602 41.1725 10.1619 41.7897 10.4431C41.9727 10.5284 42.1738 10.5678 42.3754 10.5581C44.9586 10.4006 45.0428 13.0914 44.9784 14.1414C44.9659 14.4093 45.0393 14.6743 45.1878 14.8977C46.081 16.2779 45.8138 17.0254 45.6556 17.2853C45.5626 17.4332 45.5147 17.6049 45.518 17.7796C45.5168 17.8907 45.5454 18.0002 45.6007 18.0966C46.111 18.7534 46.2084 19.263 46.2084 19.263Z" fill="#656478"/>
    <path d="M38.4282 13.161C38.4282 13.161 38.8375 12.5913 39.3273 12.9179C39.4006 12.9669 39.9351 13.284 40.9323 12.5049C40.9323 12.5049 41.6249 11.6014 42.4091 12.1872C42.9623 12.8546 43.2876 13.6815 43.3375 14.547C43.3375 14.547 44.1627 14.2043 44.3362 15.0097C44.3362 15.0097 44.5192 15.84 43.7344 15.9477C43.5627 15.924 43.4021 15.8495 43.2731 15.7339L43.2423 16.7362C43.2423 16.7362 43.3631 17.7613 43.6553 18.0973C43.6553 18.0973 44.3875 18.1457 44.7982 18.1947C44.7982 18.1947 45.5941 17.0115 44.7001 15.4124C44.6395 15.3046 44.6115 15.1815 44.6196 15.0581C44.6759 14.2065 44.7345 10.8187 42.0752 11.1167C42.0752 11.1189 39.2058 9.83028 38.4282 13.161Z" fill="#656478"/>
    <path opacity="0.3" d="M38.4282 13.161C38.4282 13.161 38.8375 12.5913 39.3273 12.9179C39.4006 12.9669 39.9351 13.284 40.9323 12.5049C40.9323 12.5049 41.6249 11.6014 42.4091 12.1872C42.9623 12.8546 43.2876 13.6815 43.3375 14.547C43.3375 14.547 44.1627 14.2043 44.3362 15.0097C44.3362 15.0097 44.5192 15.84 43.7344 15.9477C43.5627 15.924 43.4021 15.8495 43.2731 15.7339L43.2423 16.7362C43.2423 16.7362 43.3631 17.7613 43.6553 18.0973C43.6553 18.0973 44.3875 18.1457 44.7982 18.1947C44.7982 18.1947 45.5941 17.0115 44.7001 15.4124C44.6395 15.3046 44.6115 15.1815 44.6196 15.0581C44.6759 14.2065 44.7345 10.8187 42.0752 11.1167C42.0752 11.1189 39.2058 9.83028 38.4282 13.161Z" fill="black"/>
    <path opacity="0.3" d="M46.9451 30.1322C46.9451 30.1322 43.6971 30.4251 40.9017 31.3931C40.9017 31.3931 38.4979 32.0659 36.3958 30.6645C36.3958 30.6645 34.7894 29.5377 34.0162 28.9908C34.0101 28.986 34.0057 28.9792 34.0039 28.9716C34.0021 28.964 34.0029 28.956 34.0062 28.949C34.0095 28.9419 34.0152 28.9362 34.0222 28.9327C34.0292 28.9293 34.0372 28.9283 34.0448 28.93C34.5156 29.0618 35.7434 29.3451 36.8717 29.1108C37.4092 29.3305 38.1384 29.6395 38.7344 29.947C39.3059 30.2442 39.9477 30.3794 40.5905 30.338C41.7818 30.2582 43.5383 29.8716 44.3005 28.3662C44.3005 28.3662 44.608 27.8332 44.4125 26.6002L44.7281 26.6456C44.8371 27.7512 45.0671 28.9666 45.5562 29.2814L46.9451 30.1322Z" fill="black"/>
    <path d="M37.9691 23.3991C37.916 23.6424 37.8214 23.8747 37.6895 24.0859C37.6895 24.0859 37.9765 25.5554 37.9765 26.3696C37.9765 26.3696 39.1904 25.8658 39.5719 23.7549L39.1392 23.2461L37.9691 23.3991Z" fill="#F7A48B"/>
    <path d="M35.7566 23.0938C35.7566 23.0938 35.6292 26.8074 37.5629 26.5277C37.5629 26.5277 38.3258 26.6009 38.1223 25.4338L37.5117 23.1699L35.7566 23.0938Z" fill="#F9B499"/>
    <path d="M35.833 21.3131C35.833 21.3131 35.658 20.176 35.9611 19.7155C35.9819 19.6855 36.0102 19.6615 36.0432 19.6459C36.0762 19.6302 36.1127 19.6235 36.1491 19.6264C36.1854 19.6293 36.2204 19.6417 36.2505 19.6623C36.2806 19.683 36.3048 19.7111 36.3206 19.744C36.4004 19.908 36.5219 20.1687 36.6728 20.5253L36.6472 21.4405L35.833 21.3131Z" fill="#F9B499"/>
    <path d="M34.0527 21.1864L35.2989 23.7805L39.7242 23.5265L40.2836 20.6014L34.0527 21.1864Z" fill="#9ABB54"/>
    <path d="M37.2322 18.3119L35.7568 21.0334L38.8635 20.7464L37.2322 18.3119Z" fill="#9ABB54"/>
    <path opacity="0.5" d="M37.2322 18.3119L35.7568 21.0334L38.8635 20.7464L37.2322 18.3119Z" fill="white"/>
    <path d="M37.2322 18.3119L37.3772 20.8782L35.7568 21.0334L37.2322 18.3119Z" fill="#9ABB54"/>
    <path opacity="0.5" d="M38.4132 23.6012C38.4132 23.6012 37.3596 22.9158 38.4278 22.4297C38.4278 22.4297 38.8854 22.404 38.7075 21.8952C38.7075 21.8952 38.5545 21.0817 40.1316 21.4376L39.7245 23.5236L38.4132 23.6012Z" fill="white"/>
    <path d="M50.9854 34.0348L51.008 34.9361L52.2696 34.9134L52.1795 33.0661L50.9854 34.0348Z" fill="#F7A48B"/>
    <path d="M46.998 39.3738C46.998 39.3738 47.7866 42.1906 50.4225 42.2125C50.4225 42.2125 53.6887 42.8883 54.1844 41.3339L49.3183 38.7434L46.998 39.3738Z" fill="#656478"/>
    <path opacity="0.3" d="M48.3496 38.9689C48.5674 39.6216 48.9853 40.189 49.5438 40.5907L49.7012 39.2391L49.3183 38.7434L48.3496 38.9689Z" fill="black"/>
    <path d="M44.6776 38.3378L43.4834 36.8288L46.0512 36.716L47.4035 36.0175L48.687 37.3237L48.575 38.4506L45.6909 39.0363L44.6776 38.3378Z" fill="#9ABB54"/>
    <path opacity="0.3" d="M44.6776 38.3378L43.4834 36.8288L46.0512 36.716L47.4035 36.0175L48.687 37.3237L48.575 38.4506L45.6909 39.0363L44.6776 38.3378Z" fill="white"/>
    <path opacity="0.3" d="M46.0512 36.716L48.1694 38.2023L45.6909 39.0363L44.6776 38.3378L43.4834 36.8288L46.0512 36.716Z" fill="white"/>
    <path d="M19.2187 32.0322L19.4032 33.8268C19.4647 35.226 19.0949 35.5145 19.0949 35.5145C18.4155 36.071 17.5244 34.7179 17.5244 34.7179L18.2976 32.9013L18.3327 32.8179L18.3203 32.659L18.228 31.4838L18.8321 31.5036C18.8345 31.5038 18.8368 31.5032 18.8388 31.5019C18.8408 31.5006 18.8423 31.4987 18.8432 31.4965C18.844 31.4942 18.8441 31.4918 18.8434 31.4895C18.8427 31.4872 18.8413 31.4852 18.8394 31.4838C18.6469 31.3125 18.8599 31.1573 18.9595 31.0694C18.9742 31.0566 18.9846 31.0394 18.9892 31.0204C18.9938 31.0014 18.9924 30.9814 18.9851 30.9633C18.8775 30.677 19.1367 30.8022 19.3512 30.9384C19.4406 30.9935 19.51 31.0757 19.5495 31.173C19.589 31.2703 19.5965 31.3776 19.5709 31.4794C19.5044 31.6916 19.3829 31.8824 19.2187 32.0322Z" fill="#F9B499"/>
    <path d="M18.2295 31.4838L18.2617 31.8997C18.2617 31.8997 19.1447 31.8331 18.8518 31.5073L18.2295 31.4838Z" fill="#F7A48B"/>
    <path d="M18.5803 27.1325L21.9777 27.421C21.9777 27.421 21.7514 29.8086 21.8129 31.6003L17.4931 31.4538C17.4931 31.4538 17.0003 30.7707 16.4204 30.6836L16.4797 30.0348L18.5803 27.1325Z" fill="#9ABB54"/>
    <path d="M13.5387 37.591C13.5387 37.591 12.6601 38.6072 12.8197 39.1066C12.8272 39.1277 12.839 39.1471 12.8544 39.1634C12.8698 39.1797 12.8884 39.1927 12.909 39.2015C12.9296 39.2103 12.9519 39.2148 12.9743 39.2146C12.9967 39.2143 13.0189 39.2095 13.0393 39.2003C13.544 38.9818 14.0091 38.6815 14.4158 38.3114L13.5387 37.591Z" fill="#F9B499"/>
    <path d="M14.7437 38.6241C14.7437 38.6241 13.9456 39.5796 14.4149 39.8922C14.4149 39.8922 14.6939 40.0738 15.4349 39.3585C15.5384 39.2577 15.6727 39.1945 15.8163 39.1791C16.058 39.1542 16.4262 39.1593 16.6701 39.3629C16.6701 39.3467 16.5917 38.2748 15.2738 38.597C15.2745 38.597 14.9487 38.6709 14.7437 38.6241Z" fill="#F9B499"/>
    <path d="M18.8365 34.3394L18.4931 33.9733C18.7128 33.728 18.6168 33.5339 18.6168 33.5339L18.2954 32.9145V32.897L18.3306 32.8135L18.3181 32.6546V32.6473C18.9353 33.2133 18.8365 34.3394 18.8365 34.3394Z" fill="#F7A48B"/>
    <path d="M24.3652 25.004C24.3652 25.004 24.5175 25.1871 24.7401 26.0071C24.7773 26.1526 24.8018 26.3011 24.8133 26.4508C24.8331 26.6654 24.9444 27.0219 25.4679 27.0219C25.4679 27.0219 26.3641 26.9663 26.2521 26.4054L25.9907 25.6L24.571 24.8342L24.3652 25.004Z" fill="#F9B499"/>
    <path d="M25.9907 25.6022L26.2521 26.4076C26.2521 26.4076 25.3735 26.576 25.1685 25.6227L25.9907 25.6022Z" fill="#F7A48B"/>
    <path opacity="0.3" d="M24.687 27.9189C24.687 27.9189 25.2471 28.8531 25.2662 29.7683L25.4719 29.6951C25.4719 29.6951 25.4683 28.8158 24.687 27.9189Z" fill="black"/>
    <path opacity="0.1" d="M31.3535 26.6954C31.3535 26.6954 29.6659 26.9443 28.9454 27.5982L28.4761 30.7963L30.1491 30.3409L31.3535 26.6954Z" fill="black"/>
    <path opacity="0.3" d="M27.8647 32.1267C27.8647 32.1267 28.9425 30.6946 30.2033 30.5108C30.2033 30.5108 28.5384 30.4376 27.8647 32.1267Z" fill="black"/>
    <path opacity="0.3" d="M23.8501 31.8821C23.8501 31.8821 26.3717 31.9312 27.6692 32.5799C27.6692 32.5799 26.6778 31.9678 26.0408 31.9429C25.4038 31.918 25.2456 31.735 23.8501 31.8821Z" fill="black"/>
    <path d="M28.1582 33.5618C28.1582 33.5618 30.253 33.4886 30.2369 32.6356C30.2369 32.6356 30.2171 32.0886 29.4878 31.9729C29.2088 31.9306 28.9234 31.9692 28.6656 32.0842C28.4675 32.1858 28.2828 32.3114 28.1157 32.4584C28.1157 32.4584 28.4474 32.9204 28.1582 33.5618Z" fill="#F9B499"/>
    <path opacity="0.3" d="M28.481 30.6331L28.4751 30.7956L27.6536 31.4685C26.8592 32.1955 25.8715 31.9532 25.3839 31.7613C25.2823 31.7216 25.1954 31.6515 25.1351 31.5605C25.0748 31.4696 25.0441 31.3623 25.0471 31.2532V31.2488L25.7309 30.9743C25.7309 30.9743 25.4146 31.9869 26.365 31.683C26.9579 31.4952 27.4905 31.1536 27.9084 30.6931L28.481 30.6331Z" fill="black"/>
    <path d="M33.6465 41.2307L37.8924 43.5846L40.2046 39.8849L36.6733 38.2873L33.6465 41.2307Z" fill="#9ABB54"/>
    <path opacity="0.3" d="M34.1254 41.4964L33.9365 41.7542L38.1144 43.9895L38.9908 42.5281L38.8363 42.0639L37.8925 43.5846L34.1254 41.4964Z" fill="black"/>
    <path d="M44.0283 43.0267C44.0283 43.0267 42.181 42.9593 39.7143 44.1374C39.674 44.1557 39.6338 44.1755 39.5928 44.1952L38.8364 42.0639L39.6784 40.7393L42.687 39.313C42.687 39.313 43.4089 42.1664 44.0283 43.0267Z" fill="#656478"/>
    <path opacity="0.3" d="M44.2363 43.4565C42.586 43.4045 39.8008 44.729 39.8008 44.729L39.7144 44.1433V44.1367C42.1811 42.9586 44.0284 43.026 44.0284 43.026L44.2363 43.4565Z" fill="black"/>
    <path opacity="0.3" d="M40.0311 40.1587L40.4866 40.3615L39.6782 40.7393L40.0311 40.1587Z" fill="black"/>
    <path d="M31.2763 41.0571L31.168 41.3141L29.812 44.4977C28.8243 42.9967 26.7771 42.8444 25.7769 42.8671C25.5838 42.8703 25.391 42.8833 25.1992 42.9059L27.6645 39.6484C27.6774 39.6319 27.6941 39.6188 27.7133 39.6102C27.7324 39.6016 27.7534 39.5979 27.7743 39.5994C29.7204 39.77 31.2763 41.0571 31.2763 41.0571Z" fill="#656478"/>
    <path opacity="0.3" d="M31.5144 41.4415L29.9585 44.9179C28.8236 43.1988 25.457 43.3262 25.457 43.3262L25.777 42.8671C26.7772 42.8444 28.8243 42.9967 29.8121 44.4976L31.1673 41.3141L31.5144 41.4415Z" fill="black"/>
    <path d="M29.4825 37.4145C27.775 37.3281 26.2308 38.1848 26.058 38.2836L26.0427 38.2924L25.3171 35.6419C25.315 35.6354 25.3144 35.6285 25.3154 35.6218C25.3165 35.6151 25.319 35.6087 25.3229 35.6031C25.7776 34.9866 29.0981 35.2919 29.0981 35.2919C29.0815 35.4208 29.0749 35.5508 29.0783 35.6807C29.0973 36.5359 29.4825 37.4145 29.4825 37.4145Z" fill="#E6E7E8"/>
    <path opacity="0.3" d="M29.7388 37.7455C28.2378 37.7455 26.2075 38.7881 26.2075 38.7881L26.061 38.2851C26.2338 38.1863 27.778 37.3296 29.4855 37.416C29.4855 37.416 29.1003 36.5374 29.0813 35.6822L29.3573 35.6778C29.3544 36.7021 29.7388 37.7455 29.7388 37.7455Z" fill="black"/>
    <path opacity="0.3" d="M32.2735 39.9596C33.8045 39.9596 35.0455 39.7508 35.0455 39.4932C35.0455 39.2356 33.8045 39.0268 32.2735 39.0268C30.7425 39.0268 29.5015 39.2356 29.5015 39.4932C29.5015 39.7508 30.7425 39.9596 32.2735 39.9596Z" fill="black"/>
    <path d="M43.7344 15.9469C44.0858 15.9469 44.3707 15.6103 44.3707 15.195C44.3707 14.7797 44.0858 14.443 43.7344 14.443C43.383 14.443 43.0981 14.7797 43.0981 15.195C43.0981 15.6103 43.383 15.9469 43.7344 15.9469Z" fill="#F9B499"/>
    <path d="M46.6956 26.9883C46.4935 27.3397 46.1999 27.5908 45.7782 27.6472C45.6435 27.6679 45.5063 27.6652 45.3725 27.6392C44.9369 27.5784 44.119 27.3463 42.7769 26.579L40.412 24.9008C40.412 24.9008 39.753 24.6211 39.5978 23.9599C39.5978 23.9599 39.3694 23.629 39.1153 23.6041C39.1153 23.6041 38.7082 23.4511 38.9366 22.9927C38.9366 22.9927 38.6826 22.6369 38.9366 22.3338C38.9366 22.3338 38.6313 21.6748 39.4711 21.647C39.4711 21.647 40.9209 21.3673 40.8447 22.4612C40.8447 22.4612 40.8191 23.2754 41.2767 23.5038L43.3773 24.4417L44.5825 24.9791L44.5723 24.6731C44.5723 24.6731 45.4157 23.9197 47.0617 23.7886C47.0595 23.785 47.3333 25.8812 46.6956 26.9883Z" fill="#F9B499"/>
    <path d="M46.6946 26.989C46.4926 27.3404 46.1997 27.5916 45.7779 27.6479C45.643 27.6681 45.5056 27.6654 45.3716 27.6399C45.3921 27.235 45.7948 26.9077 46.2868 26.9077C46.4268 26.9071 46.5655 26.9347 46.6946 26.989Z" fill="#F7A48B"/>
    <path d="M44.5723 24.6694L44.5825 24.9762C44.5825 24.9762 45.3206 25.2808 45.4472 25.7391C45.4472 25.7391 46.5411 23.6283 47.0749 24.3656L47.0588 23.7849C47.0588 23.7849 45.7079 23.7864 44.5723 24.6694Z" fill="#F7A48B"/>
    <path d="M38.936 22.9905C38.9699 22.965 39.0093 22.9477 39.051 22.94C39.0915 22.9318 39.1329 22.9299 39.174 22.9341C39.2584 22.9403 39.3371 22.9789 39.3936 23.0418C39.3166 23.0441 39.2395 23.0407 39.163 23.0315C39.0864 23.0241 39.0104 23.0104 38.936 22.9905Z" fill="#F7A48B"/>
    <path d="M38.8853 22.56C38.9383 22.5381 38.9956 22.5281 39.0529 22.5307C39.1086 22.5314 39.1641 22.538 39.2184 22.5505C39.3279 22.5733 39.4311 22.6198 39.5208 22.6867C39.4651 22.6884 39.4095 22.6844 39.3546 22.675C39.3011 22.6684 39.2491 22.6566 39.1972 22.6457C39.1452 22.6347 39.0939 22.6208 39.0427 22.6061L38.8853 22.56Z" fill="#F7A48B"/>
    <path d="M38.936 22.3315C38.9691 22.2887 39.0128 22.2551 39.0627 22.2342C39.1127 22.211 39.1672 22.1992 39.2223 22.1998C39.2788 22.1994 39.3344 22.2141 39.3834 22.2422C39.4314 22.2687 39.4707 22.3086 39.4962 22.3572C39.4499 22.3399 39.4027 22.3252 39.3548 22.3132C39.3113 22.3024 39.2665 22.2972 39.2216 22.2979C39.1255 22.2998 39.0299 22.3111 38.936 22.3315Z" fill="#F7A48B"/>
    <path d="M43.4637 24.5186L41.429 23.73C40.412 23.3991 40.8433 22.4575 40.8433 22.4575C40.8433 22.4575 40.8176 23.2717 41.2752 23.5001L43.3759 24.438L43.4637 24.5186Z" fill="#F7A48B"/>
    <path d="M42.0585 32.2556C42.0585 32.2556 44.9499 33.4358 44.6372 34.5985C44.6372 34.5985 44.6372 35.1806 43.8055 34.745C43.8055 34.745 42.9107 34.4521 42.3697 34.3496C42.3697 34.3496 41.3505 34.2661 41.6836 32.9973L42.0585 32.2556Z" fill="#F9B499"/>
    <path d="M34.0129 28.9944C34.0129 28.9944 31.4824 28.4197 31.2306 30.4485C31.2306 30.4485 30.5782 32.3317 33.1138 33.0925C33.1138 33.0925 34.2728 33.7082 39.3439 34.1424L42.4586 34.3621C42.4586 34.3621 40.9012 34.2537 42.0603 32.2614L40.2825 31.314C40.2825 31.314 37.9564 30.0363 34.0129 28.9944Z" fill="#656478"/>
    <path d="M50.7659 34.4067C51.8683 34.4067 52.7619 33.1082 52.7619 31.5065C52.7619 29.9048 51.8683 28.6064 50.7659 28.6064C49.6636 28.6064 48.77 29.9048 48.77 31.5065C48.77 33.1082 49.6636 34.4067 50.7659 34.4067Z" fill="#F9B499"/>
    <path d="M55.0297 31.8799C55.0297 31.8799 55.461 34.608 53.1553 34.8497C53.0821 34.8577 53.0089 34.8628 52.9357 34.8658C52.9357 34.8658 51.3563 34.7508 51.9304 33.3729C51.9452 33.0272 51.9261 32.6809 51.8733 32.339C51.8733 32.339 51.6719 31.6801 52.1032 31.4209C52.1032 31.4209 51.3271 30.7619 51.4135 29.4096C51.4135 29.4096 49.892 30.0129 49.9205 28.897C49.9205 28.897 49.4153 28.3691 50.0963 27.9452C50.2118 27.8752 50.3346 27.8178 50.4624 27.7739C50.4624 27.7739 52.5586 25.8782 53.9366 28.6349C53.938 28.6349 56.5226 29.4674 55.0297 31.8799Z" fill="#656478"/>
    <path opacity="0.3" d="M53.9095 32.3683C53.9095 32.3683 54.4571 34.0296 53.1553 34.8497C53.0821 34.8577 53.0089 34.8628 52.9357 34.8658C52.9357 34.8658 51.3563 34.7508 51.9304 33.3729C51.9452 33.0272 51.9261 32.6809 51.8733 32.339C51.8733 32.339 51.6719 31.6801 52.1032 31.4209C52.1032 31.4209 51.3271 30.7619 51.4135 29.4096C51.4135 29.4096 49.892 30.0129 49.9205 28.897C49.9205 28.897 49.4153 28.3691 50.0963 27.9452C50.3708 27.9452 52.314 27.973 52.8207 29.4396C52.8185 29.4396 55.201 30.0993 53.9095 32.3683Z" fill="black"/>
    <path d="M45.6912 38.6307C45.6912 38.6307 47.8541 38.0222 48.1696 37.662L49.3184 38.7434C49.3184 38.7434 49.0929 39.4646 47.2229 39.532L45.6465 39.5766C45.6465 39.5766 44.858 39.8022 44.6998 39.4419C44.6998 39.4419 44.475 39.3965 44.5651 39.081C44.5651 39.081 44.3623 39.059 44.4523 38.7881C44.4523 38.7881 44.1141 38.4278 44.7899 38.3378C44.7899 38.3378 45.0608 38.2031 45.6912 38.6307Z" fill="#F9B499"/>
    <path d="M44.9025 38.586C44.8087 38.6109 44.7275 38.6241 44.6528 38.6512C44.6163 38.664 44.5814 38.6809 44.5488 38.7017C44.5142 38.7277 44.4819 38.7566 44.4522 38.7881C44.4486 38.7375 44.464 38.6874 44.4954 38.6475C44.5276 38.6068 44.5708 38.576 44.6198 38.5589C44.6669 38.543 44.7168 38.537 44.7663 38.5413C44.8147 38.5444 44.8616 38.5598 44.9025 38.586Z" fill="#F7A48B"/>
    <path d="M44.8803 38.9009C44.8194 38.9096 44.7605 38.9295 44.7068 38.9594C44.6832 38.9744 44.6612 38.9915 44.6409 39.0107C44.6182 39.0312 44.5955 39.0553 44.5676 39.0839C44.56 39.0457 44.5643 39.006 44.5801 38.9704C44.5965 38.9326 44.6241 38.9006 44.6592 38.8789C44.6931 38.857 44.7334 38.8473 44.7736 38.8513C44.8137 38.8553 44.8513 38.8728 44.8803 38.9009Z" fill="#F7A48B"/>
    <path d="M44.6997 39.4419C44.7054 39.4082 44.7213 39.3771 44.7451 39.3526C44.7674 39.3289 44.7943 39.3099 44.8242 39.297C44.8544 39.2828 44.8876 39.2762 44.9209 39.2779C44.9542 39.2795 44.9866 39.2894 45.0153 39.3065C44.9899 39.3241 44.9632 39.3398 44.9355 39.3533C44.9106 39.3658 44.8864 39.376 44.8622 39.387C44.8097 39.4098 44.7553 39.4282 44.6997 39.4419Z" fill="#F7A48B"/>
    <path d="M54.6119 40.2078C54.6119 40.2078 54.7027 41.1545 53.9588 41.492C53.9588 41.492 51.0081 42.0097 49.8813 40.9736C49.8813 40.9736 49.2501 40.568 49.3409 39.5774L49.3182 38.7434C49.3182 38.7434 48.3898 38.7925 48.1811 38.1152C48.1509 38.0095 48.1418 37.899 48.1544 37.7898C48.167 37.6806 48.2009 37.575 48.2544 37.4789C48.6168 36.7914 49.8527 34.6234 51.0103 34.6432C51.0103 34.6432 52.9703 34.1929 53.939 35.9721C53.939 35.9721 53.9654 36.016 54.0078 36.101C54.2304 36.5498 54.915 38.124 54.6119 40.2078Z" fill="#9ABB54"/>
    <path opacity="0.3" d="M54.612 40.2078C54.612 40.2078 50.8728 42.348 49.363 39.7121L49.3184 38.7434C49.3184 38.7434 51.028 37.6034 51.1576 36.038C51.1747 35.8053 51.2634 35.5835 51.4117 35.4032C51.7426 35.0078 52.4777 34.7106 54.0051 36.101C54.2306 36.5498 54.9152 38.124 54.612 40.2078Z" fill="white"/>
    <path d="M18.9921 39.3321C18.221 39.4144 17.444 39.4249 16.6711 39.3636C16.589 38.8847 16.324 38.6746 16.0465 38.5911C15.793 38.5266 15.5272 38.5286 15.2748 38.597C13.0965 38.9872 13.5468 36.6933 13.5468 36.6933C13.6376 35.7766 14.0886 32.2014 14.0886 32.2014C14.0403 32.0161 14.3896 31.6544 14.6407 31.4238C14.7868 31.2888 14.9576 31.1834 15.1437 31.1134L16.2076 30.7136C16.284 30.6835 16.3656 30.6693 16.4477 30.6717C16.5297 30.6741 16.6105 30.6931 16.685 30.7275C17.453 31.087 18.1222 32.3983 18.4517 33.1437C18.5249 33.3077 18.5791 33.4439 18.6165 33.5369C18.6336 33.5806 18.6406 33.6277 18.6368 33.6745C18.633 33.7213 18.6185 33.7667 18.5945 33.807C18.3511 34.2226 17.974 34.5435 17.5248 34.7172C17.4908 34.7295 17.4625 34.754 17.4455 34.7859C17.4285 34.8178 17.4238 34.8548 17.4325 34.8899C17.6705 35.9245 18.8039 36.2562 18.8039 36.2562C20.8621 36.9466 20.9067 37.8033 20.9067 37.8033C21.1842 38.8057 20.1218 39.1915 18.9921 39.3321Z" fill="#9ABB54"/>
    <path opacity="0.3" d="M18.9921 39.3321C18.221 39.4144 17.444 39.4249 16.6711 39.3636C16.589 38.8847 16.324 38.6746 16.0465 38.5911C15.793 38.5266 15.5272 38.5286 15.2748 38.597C13.0965 38.9872 13.5468 36.6933 13.5468 36.6933C13.6376 35.7766 14.0886 32.2014 14.0886 32.2014C14.0403 32.0161 14.3896 31.6544 14.6407 31.4238C14.7868 31.2888 14.9576 31.1834 15.1437 31.1134L16.2076 30.7136C16.284 30.6835 16.3656 30.6693 16.4477 30.6717C16.5297 30.6741 16.6105 30.6931 16.685 30.7275C17.453 31.087 18.1222 32.3983 18.4517 33.1437C18.5249 33.3077 18.5791 33.4439 18.6165 33.5369C18.6336 33.5806 18.6406 33.6277 18.6368 33.6745C18.633 33.7213 18.6185 33.7667 18.5945 33.807C18.3511 34.2226 17.974 34.5435 17.5248 34.7172C17.4908 34.7295 17.4625 34.754 17.4455 34.7859C17.4285 34.8178 17.4238 34.8548 17.4325 34.8899C17.6705 35.9245 18.8039 36.2562 18.8039 36.2562C20.8621 36.9466 20.9067 37.8033 20.9067 37.8033C21.1842 38.8057 20.1218 39.1915 18.9921 39.3321Z" fill="black"/>
    <path opacity="0.3" d="M18.804 36.2547C18.804 36.2547 17.4677 36.284 17.0768 35.5628C17.0665 35.5445 17.057 35.5247 17.0467 35.5035C16.6807 34.7354 16.6411 32.7849 16.6411 32.7849L17.2422 33.9564C17.4524 34.3774 18.4437 33.1451 18.4437 33.1451H18.4518C18.525 33.3092 18.5792 33.4453 18.6165 33.5383C18.6337 33.5821 18.6407 33.6291 18.6368 33.676C18.633 33.7228 18.6186 33.7681 18.5946 33.8085C18.3512 34.2241 17.9741 34.5449 17.5249 34.7186C17.4909 34.7309 17.4626 34.7554 17.4456 34.7873C17.4286 34.8192 17.4239 34.8563 17.4326 34.8914C17.6706 35.923 18.804 36.2547 18.804 36.2547Z" fill="black"/>
    <path d="M16.7067 30.2867C17.7301 30.2867 18.5598 28.9168 18.5598 27.2269C18.5598 25.5371 17.7301 24.1671 16.7067 24.1671C15.6832 24.1671 14.8535 25.5371 14.8535 27.2269C14.8535 28.9168 15.6832 30.2867 16.7067 30.2867Z" fill="#F9B499"/>
    <path d="M15.9124 28.7857L16.1481 27.6684C17.2662 26.7561 17.0304 25.2266 17.0304 25.2266C17.0304 25.2266 17.737 25.6659 18.0306 25.138C18.0306 25.138 18.3235 25.5202 18.4428 26.2561C18.4428 26.2561 19.09 24.4908 17.2955 23.6934C17.2955 23.6934 15.282 22.5695 14.1639 23.9936C14.0992 24.0752 14.0163 24.1405 13.9218 24.1842C13.8274 24.2279 13.724 24.2489 13.6199 24.2455C12.8643 24.2243 11.1876 24.523 11.6467 27.6948C11.6467 27.6948 11.7265 29.6292 12.8409 31.0079C12.9537 31.1451 13.0112 31.3196 13.002 31.497C12.9719 32.0059 13.0349 32.9804 14.0885 32.1955C14.0885 32.1955 14.6186 33.49 15.4716 32.1662C15.4716 32.1692 16.5596 31.5512 15.9124 28.7857Z" fill="#656478"/>
    <path opacity="0.3" d="M13.0144 32.1303C13.0144 32.1303 14.0951 31.6391 13.1608 30.0663C13.1608 30.0663 10.5813 25.4477 14.3645 24.8334C14.3645 24.8334 16.1335 22.549 18.5658 25.2727C18.5743 25.6039 18.5326 25.9345 18.442 26.2531C18.442 26.2531 18.2312 25.4397 18.0298 25.1351C18.0298 25.1351 17.7538 25.6403 17.0297 25.2237C17.0297 25.2237 17.242 26.7408 16.1474 27.6655L15.9116 28.7828C15.9116 28.7828 16.6504 31.2964 15.4723 32.1662C15.4723 32.1662 14.6962 33.4922 14.0892 32.1955C14.0885 32.1984 13.3585 32.8918 13.0144 32.1303Z" fill="black"/>
    <path d="M15.9122 28.7865C16.1722 28.7865 16.383 28.5098 16.383 28.1685C16.383 27.8272 16.1722 27.5506 15.9122 27.5506C15.6522 27.5506 15.4414 27.8272 15.4414 28.1685C15.4414 28.5098 15.6522 28.7865 15.9122 28.7865Z" fill="#F9B499"/>
    <path opacity="0.3" d="M18.992 39.3321C18.2209 39.4144 17.4439 39.4249 16.6709 39.3636C16.5889 38.8847 16.3239 38.6746 16.0464 38.5911C16.1196 38.5435 17.4112 37.7074 18.4831 37.8743C18.5883 37.8902 18.6848 37.9419 18.7562 38.0208C18.9004 38.1853 18.9917 38.3894 19.0183 38.6065C19.0661 38.8471 19.0571 39.0956 18.992 39.3321Z" fill="black"/>
    <path d="M26.2341 26.032C27.4416 26.032 28.4204 24.7437 28.4204 23.1545C28.4204 21.5654 27.4416 20.2771 26.2341 20.2771C25.0267 20.2771 24.0479 21.5654 24.0479 23.1545C24.0479 24.7437 25.0267 26.032 26.2341 26.032Z" fill="#F9B499"/>
    <path d="M28.2335 22.0145L28.2086 21.9413C28.1611 21.7818 28.0919 21.6295 28.0029 21.4888L27.9912 21.472C27.636 21.9391 27.0935 21.4537 27.0935 21.4537C26.3474 20.9119 25.8788 22.0145 25.8788 22.0145C25.7675 22.519 25.1129 22.4626 25.1129 22.4626C24.1421 22.0328 24.1889 24.1466 24.1889 24.1466C23.6764 24.1649 23.7496 24.8056 23.7496 24.8056C22.3673 24.3194 22.3321 22.9524 22.3321 22.9524C22.2948 20.7105 24.0894 20.8789 24.0894 20.8789C24.3888 20.2251 24.856 20.0003 24.856 20.0003C25.4417 19.7265 25.9345 19.6474 26.3467 19.6759C26.6611 19.696 26.9671 19.7857 27.2426 19.9387C27.518 20.0917 27.756 20.3041 27.9392 20.5604C29.3816 20.7208 28.2745 21.9655 28.2335 22.0145Z" fill="#656478"/>
    <path d="M24.1883 25.2661C24.4617 25.2661 24.6833 25.015 24.6833 24.7053C24.6833 24.3955 24.4617 24.1444 24.1883 24.1444C23.915 24.1444 23.6934 24.3955 23.6934 24.7053C23.6934 25.015 23.915 25.2661 24.1883 25.2661Z" fill="#F9B499"/>
    <path opacity="0.3" d="M28.2338 22.0145L28.2089 21.9413C28.1569 21.7834 28.088 21.6317 28.0031 21.4888L27.9914 21.472C27.6422 20.3737 26.478 19.7418 26.3433 19.6723C26.6577 19.6923 26.9637 19.7821 27.2392 19.9351C27.5146 20.088 27.7526 20.3004 27.9358 20.5567C29.3818 20.7208 28.2748 21.9655 28.2338 22.0145Z" fill="black"/>
    <path d="M28.9453 27.5981L26.3702 27.4144L26.002 30.9596L28.476 30.7963L28.9453 27.5981Z" fill="#D1D3D4"/>
    <path d="M31.3535 26.6954C31.3535 26.6954 29.6659 26.9443 28.9454 27.5982L28.4761 30.7963L30.1491 30.3409L31.3535 26.6954Z" fill="#D1D3D4"/>
    <path d="M23.6177 30.852C23.6177 30.852 23.644 32.197 24.9312 31.5615L26.3956 30.636C26.4735 30.5863 26.5657 30.5641 26.6577 30.573C27.0296 30.6052 28.0166 30.6616 27.9083 30.2391C27.9083 30.2391 28.1587 30.0715 27.9749 29.854C27.9749 29.854 28.2927 29.7705 28.0752 29.3861C28.0752 29.3861 27.8555 28.9344 27.1058 29.0201C27.1311 28.9971 27.153 28.9707 27.171 28.9417C27.1872 28.9129 27.194 28.8797 27.1902 28.8469C27.1864 28.814 27.1724 28.7832 27.15 28.7588C27.1277 28.7344 27.0982 28.7177 27.0658 28.7111C27.0334 28.7045 26.9997 28.7084 26.9696 28.7221C26.8144 28.7953 26.5654 28.9644 26.3443 29.3642C26.2996 29.4438 26.2363 29.5115 26.1598 29.5614C26.0833 29.6114 25.9959 29.6422 25.905 29.6512C25.2526 29.72 23.7788 29.9785 23.6177 30.852Z" fill="#F9B499"/>
    <path d="M27.975 29.8555C27.9114 29.8785 27.8429 29.8838 27.7766 29.8709C27.7096 29.8602 27.6467 29.8319 27.5942 29.7889C27.6583 29.7675 27.7266 29.7625 27.793 29.7741C27.8595 29.7857 27.922 29.8137 27.975 29.8555Z" fill="#F7A48B"/>
    <path d="M27.8484 30.2391C27.6617 30.2986 27.4603 30.2927 27.2773 30.2223C27.3695 30.1902 27.4669 30.1763 27.5644 30.1813C27.6619 30.1824 27.7583 30.202 27.8484 30.2391Z" fill="#F7A48B"/>
    <path d="M29.0981 37.6722L30.6723 39.447C30.6723 39.447 33.3441 39.923 34.6796 39.026L35.4359 36.7387C35.4363 36.7379 35.4366 36.7371 35.4367 36.7362C35.4368 36.7353 35.4368 36.7344 35.4365 36.7336C35.4363 36.7327 35.4359 36.7319 35.4353 36.7313C35.4348 36.7306 35.4341 36.73 35.4334 36.7295C35.4326 36.7291 35.4317 36.7288 35.4309 36.7287C35.43 36.7286 35.4291 36.7287 35.4282 36.7289C35.4274 36.7292 35.4266 36.7296 35.4259 36.7301C35.4252 36.7307 35.4246 36.7313 35.4242 36.7321C35.1787 37.0148 34.866 37.2311 34.5148 37.3611L32.136 34.4697L30.5808 37.0133L29.0981 37.6722Z" fill="#9ABB54"/>
    <path d="M34.0024 36.7555L35.4361 36.7372C35.4361 36.7372 35.1739 37.085 34.515 37.3596L34.0024 36.7555Z" fill="#9ABB54"/>
    <path opacity="0.3" d="M34.0024 36.7555L35.4361 36.7372C35.4361 36.7372 35.1739 37.085 34.515 37.3596L34.0024 36.7555Z" fill="black"/>
    <path opacity="0.3" d="M32.3747 37.7271L32.1367 34.4697L30.5808 37.0133L29.0981 37.6722C29.0981 37.6722 31.5136 37.9834 32.3747 37.7271Z" fill="black"/>
  </g>
  <defs>
    <clipPath id="clip0_155_954">
      <rect width="63.3894" height="50" fill="white" transform="translate(0.305176)"/>
    </clipPath>
  </defs>
</svg>