<svg xmlns="http://www.w3.org/2000/svg" width="73" height="48" viewBox="0 0 73 48" fill="none">
  <g clip-path="url(#clip0_3_224)">
    <path d="M54.37 8.06006H18.63L15.938 12.5381C15.1344 13.8749 14.7099 15.4053 14.71 16.9651V42.9051C14.71 43.5804 14.843 44.2491 15.1015 44.873C15.3599 45.497 15.7388 46.0639 16.2164 46.5414C16.694 47.0189 17.2609 47.3976 17.8849 47.6559C18.5089 47.9143 19.1776 48.0472 19.853 48.0471H53.153C54.5168 48.0471 55.8248 47.5053 56.7893 46.5411C57.7537 45.5768 58.2957 44.2689 58.296 42.9051V16.9651C58.296 15.4051 57.871 13.8751 57.068 12.5381L54.37 8.06006Z" fill="#92D3F5"/>
    <path d="M18.66 -0.0500488H54.3V7.86695H18.66V-0.0500488Z" fill="#D0CFCE"/>
    <path d="M39.547 37.9799V30.6349H46.893V25.4629H39.547V18.1179H34.376V25.4629H27.03V30.6349H34.376V37.9809L39.547 37.9799Z" fill="#D22F27"/>
    <path d="M34.376 18.1179V25.4629H27.03V30.6349H34.376V37.9809H39.547V30.6349H46.893V25.4629H39.547V18.1179H34.376Z" stroke="#22495F" stroke-width="1.553" stroke-linecap="round" stroke-linejoin="round"/>
    <path d="M24.5601 -0.0900879V7.83991M30.5301 -0.0900879V7.83991M36.5001 -0.0900879V7.83991M42.4701 -0.0900879V7.83991M48.4401 -0.0900879V7.83991M54.4001 8.03991H18.6001L15.9041 12.5249C15.0992 13.8639 14.674 15.3967 14.6741 16.9589V42.9389C14.6739 43.6154 14.8071 44.2853 15.0659 44.9103C15.3247 45.5353 15.7041 46.1032 16.1825 46.5815C16.6608 47.0599 17.2287 47.4393 17.8537 47.6981C18.4787 47.9569 19.1486 48.09 19.8251 48.0899H53.1751C53.8515 48.09 54.5214 47.9569 55.1464 47.6981C55.7714 47.4393 56.3393 47.0599 56.8177 46.5815C57.296 46.1032 57.6754 45.5353 57.9342 44.9103C58.1931 44.2853 58.3262 43.6154 58.3261 42.9389V16.9589C58.3259 15.3967 57.9007 13.864 57.0961 12.5249L54.4001 8.03991ZM18.6401 -0.0900879H54.3401V7.83891H18.6401V-0.0900879Z" stroke="#22495F" stroke-width="1.766" stroke-linecap="round" stroke-linejoin="round"/>
  </g>
  <defs>
    <clipPath id="clip0_3_224">
      <rect width="72" height="48" fill="white" transform="translate(0.5)"/>
    </clipPath>
  </defs>
</svg>