<svg xmlns="http://www.w3.org/2000/svg" width="27" height="27" viewBox="0 0 27 27" fill="none">
<rect width="26.88" height="26.88" rx="3.84" fill="#096A56"/>
<path d="M14.3418 17.8538H15.1856V20.16H14.3418V17.8538Z" fill="#EAF0E8"/>
<path d="M12.6543 17.8538H13.4981V20.16H12.6543V17.8538Z" fill="#EAF0E8"/>
<path d="M16.7606 5.76001H11.0793C10.8464 5.76001 10.6575 5.9489 10.6575 6.18188V20.16H11.8106V17.4319C11.8106 17.1989 11.9995 17.01 12.2325 17.01H15.6075C15.8405 17.01 16.0293 17.1989 16.0293 17.4319V20.16H17.1825V6.18188C17.1825 5.9489 16.9936 5.76001 16.7606 5.76001ZM12.6543 15.7444C12.6543 15.9774 12.4655 16.1663 12.2325 16.1663C11.9995 16.1663 11.8106 15.9774 11.8106 15.7444V14.9006C11.8106 14.6676 11.9995 14.4788 12.2325 14.4788C12.4655 14.4788 12.6543 14.6676 12.6543 14.9006V15.7444ZM12.6543 13.2131C12.6543 13.4461 12.4655 13.635 12.2325 13.635C11.9995 13.635 11.8106 13.4461 11.8106 13.2131V12.3694C11.8106 12.1364 11.9995 11.9475 12.2325 11.9475C12.4655 11.9475 12.6543 12.1364 12.6543 12.3694V13.2131ZM14.3418 15.7444C14.3418 15.9774 14.153 16.1663 13.92 16.1663C13.687 16.1663 13.4981 15.9774 13.4981 15.7444V14.9006C13.4981 14.6676 13.687 14.4788 13.92 14.4788C14.153 14.4788 14.3418 14.6676 14.3418 14.9006V15.7444ZM14.3418 13.2131C14.3418 13.4461 14.153 13.635 13.92 13.635C13.687 13.635 13.4981 13.4461 13.4981 13.2131V12.3694C13.4981 12.1364 13.687 11.9475 13.92 11.9475C14.153 11.9475 14.3418 12.1364 14.3418 12.3694V13.2131ZM16.0293 15.7444C16.0293 15.9774 15.8405 16.1663 15.6075 16.1663C15.3745 16.1663 15.1856 15.9774 15.1856 15.7444V14.9006C15.1856 14.6676 15.3745 14.4788 15.6075 14.4788C15.8405 14.4788 16.0293 14.6676 16.0293 14.9006V15.7444ZM16.0293 13.2131C16.0293 13.4461 15.8405 13.635 15.6075 13.635C15.3745 13.635 15.1856 13.4461 15.1856 13.2131V12.3694C15.1856 12.1364 15.3745 11.9475 15.6075 11.9475C15.8405 11.9475 16.0293 12.1364 16.0293 12.3694V13.2131ZM12.6543 10.6819C12.6543 10.9149 12.4655 11.1038 12.2325 11.1038C11.9995 11.1038 11.8106 10.9149 11.8106 10.6819V9.83813C11.8106 9.60515 11.9995 9.41626 12.2325 9.41626C12.4655 9.41626 12.6543 9.60515 12.6543 9.83813V10.6819ZM14.3418 10.6819C14.3418 10.9149 14.153 11.1038 13.92 11.1038C13.687 11.1038 13.4981 10.9149 13.4981 10.6819V9.83813C13.4981 9.60515 13.687 9.41626 13.92 9.41626C14.153 9.41626 14.3418 9.60515 14.3418 9.83813V10.6819ZM16.0293 10.6819C16.0293 10.9149 15.8405 11.1038 15.6075 11.1038C15.3745 11.1038 15.1856 10.9149 15.1856 10.6819V9.83813C15.1856 9.60515 15.3745 9.41626 15.6075 9.41626C15.8405 9.41626 16.0293 9.60515 16.0293 9.83813V10.6819ZM12.6543 8.15063C12.6543 8.38362 12.4655 8.57251 12.2325 8.57251C11.9995 8.57251 11.8106 8.38362 11.8106 8.15063V7.30688C11.8106 7.0739 11.9995 6.88501 12.2325 6.88501C12.4655 6.88501 12.6543 7.0739 12.6543 7.30688V8.15063ZM14.3418 8.15063C14.3418 8.38362 14.153 8.57251 13.92 8.57251C13.687 8.57251 13.4981 8.38362 13.4981 8.15063V7.30688C13.4981 7.0739 13.687 6.88501 13.92 6.88501C14.153 6.88501 14.3418 7.0739 14.3418 7.30688V8.15063ZM16.0293 8.15063C16.0293 8.38362 15.8405 8.57251 15.6075 8.57251C15.3745 8.57251 15.1856 8.38362 15.1856 8.15063V7.30688C15.1856 7.0739 15.3745 6.88501 15.6075 6.88501C15.8405 6.88501 16.0293 7.0739 16.0293 7.30688V8.15063Z" fill="#EAF0E8"/>
<path d="M20.6981 11.385H18.0262V20.16H20.6981C20.9311 20.16 21.12 19.9711 21.12 19.7381V11.8069C21.12 11.5739 20.9311 11.385 20.6981 11.385ZM19.995 16.8694C19.995 17.1024 19.8061 17.2913 19.5731 17.2913C19.3401 17.2913 19.1512 17.1024 19.1512 16.8694V16.0256C19.1512 15.7926 19.3401 15.6038 19.5731 15.6038C19.8061 15.6038 19.995 15.7926 19.995 16.0256V16.8694ZM19.995 14.3381C19.995 14.5711 19.8061 14.76 19.5731 14.76C19.3401 14.76 19.1512 14.5711 19.1512 14.3381V13.4944C19.1512 13.2614 19.3401 13.0725 19.5731 13.0725C19.8061 13.0725 19.995 13.2614 19.995 13.4944V14.3381Z" fill="#EAF0E8"/>
<path d="M7.14185 11.385C6.90886 11.385 6.71997 11.5739 6.71997 11.8069V19.7381C6.71997 19.9711 6.90886 20.16 7.14185 20.16H9.81372V11.385H7.14185ZM8.68872 16.8694C8.68872 17.1024 8.49983 17.2913 8.26685 17.2913C8.03386 17.2913 7.84497 17.1024 7.84497 16.8694V16.0256C7.84497 15.7926 8.03386 15.6038 8.26685 15.6038C8.49983 15.6038 8.68872 15.7926 8.68872 16.0256V16.8694ZM8.68872 14.3381C8.68872 14.5711 8.49983 14.76 8.26685 14.76C8.03386 14.76 7.84497 14.5711 7.84497 14.3381V13.4944C7.84497 13.2614 8.03386 13.0725 8.26685 13.0725C8.49983 13.0725 8.68872 13.2614 8.68872 13.4944V14.3381Z" fill="#EAF0E8"/>
</svg>