<svg xmlns="http://www.w3.org/2000/svg" width="27" height="28" viewBox="0 0 27 28" fill="none">
  <rect y="0.560059" width="26.88" height="26.88" rx="3.84" fill="#096A56"/>
  <path d="M19.4788 11.8211L19.4528 11.7858L19.4476 11.7755L17.0814 8.26287L14.7151 11.7755L14.7102 11.7854L14.6839 11.8211C14.3042 12.3354 14.1036 12.9463 14.1036 13.5879C14.1036 15.2299 15.4394 16.5657 17.0814 16.5657C18.7233 16.5657 20.0592 15.2299 20.0592 13.5879C20.0592 12.9462 19.8585 12.3353 19.4788 11.8211Z" fill="#EAF0E8"/>
  <path d="M17.0814 17.5802C14.88 17.5802 13.089 15.7892 13.089 13.5878C13.089 12.7321 13.3556 11.9166 13.8601 11.2289L15.4156 8.91973L13.0176 5.36011L8.02143 12.7768C7.23589 13.8458 6.8208 15.1132 6.8208 16.4433C6.8208 19.8602 9.60069 22.6401 13.0177 22.6401C16.2553 22.6401 18.9205 20.1443 19.1914 16.9756C18.5788 17.3585 17.8556 17.5802 17.0814 17.5802Z" fill="#EAF0E8"/>
</svg>